<?xml version="1.0" encoding="utf-8"?>
<!-- Generator: Adobe Illustrator 21.0.0, SVG Export Plug-In . SVG Version: 6.00 Build 0)  -->
<svg version="1.1" id="Layer_1" xmlns="http://www.w3.org/2000/svg" xmlns:xlink="http://www.w3.org/1999/xlink" x="0px" y="0px"
	 viewBox="0 0 720 720" style="enable-background:new 0 0 720 720;" xml:space="preserve">
<g id="hqHl3m.tif">
	<g>
		<g>
			<path d="M357,13c2.4,2,4.5,4.3,6.7,6.4c9,8.6,18.2,17.1,26.9,26c3.3,3.4,6.4,6.9,9.4,10.6c1.5,1.8,3.2,3.5,4.8,5.3
				c5.6,6.1,10.6,12.6,15.9,18.9c9,10.7,18.4,21,28.5,30.7c8,7.7,16.7,14.7,24.5,22.6c6.2,6.4,12.5,12.6,18.7,19
				c0.2,0.2,0.3,0.4,0.5,0.5c0.9,0.9,1.6,2.1,2.9,2.5c1.3,0.5,2.2-0.8,3.3-1.2c6.9-2.8,14.8-1.2,19.3,4.7c0.6,0.8,1.2,1,2.1,0.7
				c3.8-1.1,7.6-1.8,11.1-3.8c2.3-1.3,4.3-2.9,5.3-5.3c1.9-4.7,5.4-7.3,10.4-8.3c7.9-1.6,15.5-4.5,23.4-6.1
				c5.7-1.2,11.5-1.7,17.3-2.2c6.1-0.6,12.3-0.9,18.4-1.3c5.7-0.3,11.5-0.2,17.2,0.2c6.5,0.5,13,1.3,19.5,2.1
				c1.8,0.2,3.6,0.5,5.5,0.7c0.8,0.1,1.6,0.3,2.4,0.2c3.5-0.5,6.8,0.6,10.2,1.1c3.6,0.5,7.3,1.1,10.9,1.3c4,0.2,8,0.4,12,0.8
				c2.6,0.3,5.1-0.1,7.7-0.2c3.8,0,7.7-0.3,11.5,0.2c0.7,0.1,1.3-0.1,1.9-0.2c1.1-0.2,1.9,0.3,2.4,1.2c0.5,1-0.2,1.7-0.8,2.3
				c-0.7,0.8-1.7,1.2-2.7,1.4c-2.4,0.5-4.9,1-7.3,1.4c-4.8,0.7-9.5,2-14.2,3.2c-6.7,1.7-13.5,3.1-20.5,3.6c-4,0.3-7.9,1.1-11.9,1.6
				c-7,0.9-13.9,2-20.9,2.7c-5.5,0.6-10.8,2.2-16.2,3.2c-4.9,0.8-9.7,1.8-14.7,2.1c-7.6,0.5-15.1,0.9-22.6,2.3
				c-4.2,0.8-8.5,1.4-12.8,1.5c-1,0-1.9,0.3-2.8,0.4c-5,0.9-10.2,1-15.3,1.5c-6.9,0.7-13.8,1.5-20.6,2.9c-1.2,0.2-1.5,0.9-1.5,2
				c0,2.9-1,5.5-2.2,8c-0.9,2.1-2.5,3.7-4.2,5.2c-0.8,0.7-1.7,1.2-2.7,1.5c-2.3,0.7-2.3,0.7-2.2,2.9c0.3,8,1,15.9,1.9,23.9
				c0.9,8.5,1.3,17.1,1.2,25.6c-0.1,5,0.4,10.1,0.7,15.1c0.2,3.4,0.2,6.9,0.3,10.3c0.3,6.5,0.8,13.1,1.1,19.6
				c0.3,5.4,0.4,10.9,0.7,16.3c0.2,6.1,0.3,12.2,0.6,18.2c0.4,8.2,0,16.5,0.2,24.7c0.2,9.8-0.1,19.7,0.5,29.5
				c0.5,7.8,0.4,15.7,0.7,23.5c0.3,7.2,0.2,14.4,0.5,21.6c0.3,5.5,0.2,11,0.4,16.5c0.4,9.2,0.9,18.3,1.3,27.5c0.3,8,0.9,16,1.1,23.9
				c0.2,6.5,0.5,13.1,0.9,19.6c0.5,7.5,0.5,15,1.2,22.5c0.2,2,0.1,4,0.1,6c0,0.9,0.3,1.6,1.2,1.8c1.2,0.2,2.4,0.5,3.5-0.3
				c0.4-0.3,0.4-0.9,0.4-1.3c-0.1-1.9-0.1-3.8-0.2-5.8c-0.2-4.6-0.5-9.1-0.7-13.7c-0.1-2.3,0.2-2.6,2.6-2.6c4.8,0,9.6,0,14.4,0
				c2.5,0,2.8,0.3,2.7,2.8c-0.2,7.7-0.6,15.3-0.8,23c-0.1,3.6-0.1,7.2-0.2,10.8c-0.1,2.6-0.3,5.1-0.3,7.7c0,2,0.2,2.2,2.2,2.2
				c3.1,0,6.2,0,9.4,0c1.8,0,2-0.3,2.1-2.1c0.1-1.1,0.1-2.2,0-3.4c-0.1-1.4,0.5-2.4,1.7-3.2c2.3-1.5,4.4-3.2,6.8-4.6
				c1.9-1.2,2.7-2.6,2.6-4.9c-0.2-4.5-0.1-9,0-13.4c0-0.6,0-1.3,0-1.9c0-1.1,0.6-1.6,1.6-1.6c4.1,0,8.2,0,12.2,0
				c1.1,0,1.6,0.5,1.7,1.6c0.1,1.3,0.3,2.5,0.3,3.8c0.1,2.4,0,4.8,0.4,7.2c0.3,1.7,0.4,1.9,2.1,2c0.5,0,1,0,1.4,0
				c1,0,1.4-0.5,1.3-1.5c-0.2-1.9-0.4-3.8-0.6-5.7c-1.3-10.7-2.6-21.4-4-32.1c-0.1-0.5-0.1-1-0.2-1.4c0-0.8,0.4-1.2,1.1-1.3
				c0.3-0.1,0.6-0.1,1-0.1c6.8,0,13.6-0.7,20.4-0.5c0.2,0,0.5,0,0.7,0c1.5,0.1,1.8,0.4,1.9,1.9c0.1,0.7,0,1.4,0,2.2
				c0,18.1,0,36.2,0,54.2c0,0.6,0,1.3,0,1.9c0.1,1.9,0.2,2.1,2,2.2c3.1,0.1,6.2,0.1,9.4,0.2c1.5,0,1.7-0.2,1.8-1.9
				c0-3,0-5.9-0.1-8.9c-0.3-4.8-0.2-9.6-0.3-14.4c0-2,0.3-2.3,2.4-2.3c3,0,6.1,0,9.1,0c3.9,0,3.5,0.5,5.3-3.5
				c5.2-11.3,9.7-22.8,13.4-34.6c5.5-17.3,9.4-34.9,11.5-52.9c0.2-1.6,0.3-3.2,0.6-4.8c0.2-1,0.9-1.2,1.5-0.4
				c1.2,1.4,2.7,2.3,4.2,3.2c1.7,1.1,2.2,2.5,1.9,4.5c-1,6.9-2,13.8-3.4,20.6c-4.5,22.6-11.6,44.4-21,65.4
				c-4.9,10.8-10.4,21.3-16.5,31.5c-0.2,0.4-0.5,0.8-0.8,1.2c-0.5,0.8-1.1,1.3-2.2,1c-1.1-0.4-2.1,0-2.7,0.9c-0.7,1-0.8,2.2,0,3.1
				c1,1.1,0.5,2-0.1,3c-6.3,9.6-13,18.8-20.3,27.7c-3.3,3.9-6.6,7.8-10.1,11.6c-1.1,1.2-2.2,1.7-3.8,1.6c-4.5-0.3-9.1-0.5-13.6-0.9
				c-3.3-0.3-6.5-0.3-9.8-0.5c-5.1-0.4-10.2-0.5-15.3-0.6c-8-0.2-16-0.3-24-0.6c-10.9-0.4-21.9-0.5-32.8-1c-18-0.8-36-1.1-54-0.7
				c-11.2,0.2-22.4,0.8-33.6,0.9c-11.3,0-22.5,0.4-33.8,0.6c-8.9,0.2-17.9,0.6-26.8,1c-8.9,0.4-17.7,0.7-26.6,0.9
				c-6.9,0.2-13.9,0.5-20.9,0.5c-8.1,0-16.1,0.6-24.2,0.4c-2.7,0-5.4,0.2-8.1,0.2c-2.7,0.1-5.4,0-8.1-0.1c-1.1,0-2.2,0.2-3.3,0.2
				c-6-0.5-12-0.2-17.9-0.7c-3.5-0.3-7-0.3-10.5,0.2c-2.4,0.3-4.8-0.3-7.2-0.3c-3.8,0-7.7-0.3-11.5-0.6c-3.5-0.2-7-0.5-10.5-0.6
				c-6.4-0.2-12.7-1.3-19.1-1.7c-10.1-0.6-20.2-1.9-30.3-2.6c-2.9-0.2-5.9-0.7-8.8-0.9c-1.8-0.1-2.9-1.2-4-2.4
				c-5.1-6.1-10-12.3-14.7-18.7c-10.4-14.3-19.5-29.5-27.2-45.4c-12.6-25.8-21.4-52.9-26.3-81.2c-1.3-7.4-2.2-14.9-3.1-22.3
				c0-0.2-0.1-0.3-0.1-0.5c0-0.5-0.2-1,0.4-1.3c0.4-0.2,0.7,0.2,1,0.4c1.5,1.1,3,2.2,4.4,3.3c0.5,0.3,0.9,0.7,1.4,0.9
				c1.4,0.6,1.8,1.6,1.9,3c3.4,28.2,10.7,55.4,22,81.5c4.3,10.1,9.2,19.9,14.7,29.4c0.3,0.6,0.5,1.3,1.5,1.8
				c-0.2-2.8-0.4-5.3-0.6-7.9c-0.6-6.4-1.1-12.7-1.7-19.1c-0.3-3.1-0.6-6.2-0.8-9.3c-0.1-0.6-0.1-1.1-0.1-1.7
				c-0.1-2.5,0.1-2.7,2.7-2.8c8,0,16,0,24,0c2.6,0,2.7,0.2,2.8,2.9c0.3,12.5,0.4,25,0.5,37.4c0,0.2,0,0.3,0,0.5c0,2.9,0.1,2.9,3,3
				c6.9,0.3,13.8,0.3,20.6,0.3c2.3,0,2.4,0,2.3,2.4c0,1,0.1,1.9,0.7,2.7c1.1,1.5,2.1,3,3.1,4.5c0.6,0.9,3,1.3,3.9,0.7
				c0.6-0.3,0.5-0.9,0.6-1.5c0.7-5.3,0.6-10.7,0.6-16c0-1,0-2.1-1-2.8c-0.6-0.4-0.7-1-0.8-1.7c0-0.4-0.1-0.8-0.1-1.2
				c-0.2-12.2-0.4-24.5-0.7-36.7c-0.1-2.5,0.8-4.7,1.7-6.9c0.4-1.1,1-1.2,1.6-0.1c0.9,1.7,1.7,3.4,2.7,5.3c1.9-2.2,3.6-4.2,5.4-6.3
				c3.5-4.1,6.9-8.2,10.4-12.3c1.1-1.2,1.6-2.5,1.5-4.1c0-1-0.3-2.1,0.8-2.9c0.9,1,0.7,2.2,0.7,3.2c0,1.2,0.3,2.1,1.2,3
				c5.5,5.4,10.6,11.3,16.2,16.7c0.4,0.4,0.7,0.9,1.4,1c0.7-1.3,1.3-2.7,2-4c0.7-1.2,1.1-1.2,1.9-0.1c1.4,1.8,2.2,3.9,2.2,6.2
				c0,0.6-0.2,1.3,0.6,1.9c1.7-1.2,3.2-2.7,4.8-4.2c2.5-2.4,2.2-2.3,4.7-0.1c1.4,1.2,2.7,2.5,4.1,3.7c1.3,1.1,1.3,1.1,2.4-0.3
				c4.4-5.4,8.7-10.8,13.1-16.3c1.6-2,3.2-4,4.8-6c1-1.2,1.3-1.2,2.5-0.1c0.6,0.5,1.1,1.1,1.7,1.7c0.4,0.4,0.9,0.8,1.4,0.3
				c0.5-0.6,1.3-1.3,0.7-2.1c-1.4-1.6-2.9-3.2-4.5-4.7c-0.7-0.6-1.2,0-1.6,0.5c-1.6,1.9-3.1,3.8-4.7,5.8c-4.4,5.3-8.7,10.7-13.1,16
				c-1.6,1.9-1.7,1.9-3.6,0.3c-1.3-1.2-2.6-2.4-3.9-3.6c-1.5-1.3-1.5-1.3-2.9,0c-1.5,1.4-3,2.8-4.6,4.2c-0.3,0.3-0.6,0.5-1.1,0.8
				c-1.1-1.5,0-3.4-1.1-4.8c-1-1.3-1.6-2.9-2.9-4.2c-1.2,1-1.6,2.3-2.3,3.5c-0.8,1.3-1.1,1.5-2.1,0.4c-3-3-5.8-6.1-8.8-9.2
				c-0.8-0.9-0.6-1.5,0.2-2.2c2.8-2.4,5.6-4.8,8.3-7.2c0.9-0.8,1.9-1,3.1-1.1c3.6-0.1,7.2-0.2,10.8-0.3c9.4-0.4,18.9-0.4,28.3-0.7
				c10.8-0.3,21.6-0.6,32.4-0.9c2.2-0.1,4.2,0.4,6.2,1.4c4.4,2.4,9,4.6,13.4,6.9c1.9,1,1.9,1.2,0.8,2.9c-1.8,2.8-3.6,5.7-5.5,8.4
				c-1.3,1.9-1.7,1.9-2.6-0.1c-0.8-1.6-1.5-3.2-2.2-4.8c-0.2-0.4-0.3-0.8-0.7-0.9c-1.2,1.4-3.1,6-3.2,7.8c0,0.4,0,0.8,0,1.2
				c-0.2,1.9-0.5,2.1-2.2,1c-1.6-1.1-3.1-2.2-4.7-3.3c-0.6-0.4-1.2-1.1-1.9-0.5c-0.8,0.6-1.8,1.3-2.1,2.3c-0.2,0.8,0.6,1.5,1.2,1.6
				c3.1,0.5,5.2,2.8,7.8,4.1c0.6,0.3,1.1,0.9,2,0.9c0.6-0.6,0.4-1.3,0.3-2c-0.2-2.5,0.9-4.7,1.8-6.9c0.5-1.1,1.1-1.2,1.7-0.1
				c1.3,2.4,3,4.8,2.6,7.8c0.9-0.1,1.1-0.8,1.5-1.3c1.8-2.5,3.5-5,5.2-7.5c3.2-4.9,6.8-9.5,10.7-13.9c1.7-2,3.2-4,2.8-6.8
				c-0.1-0.7-0.2-1.9,0.8-2c1.2,0,1.1,1.3,1,2c-0.3,2.8,0.9,4.8,2.7,6.8c5.1,5.6,10,11.4,15,17.1c0.3,0.4,0.6,0.7,1,1.1
				c1.6,1.7,1.8,1.6,2.5-0.5c0.6-1.9,1.4-3.7,2.8-5.7c1.3,2.6,2.4,4.9,2.4,7.6c0,6.7,0,13.4,0.2,20.2c0.2,6.7,0.3,13.4,0.4,20.1
				c0,1.7-0.2,3.2-1.4,4.4c-0.8,0.8-1,1.8-0.9,2.9c0,3.2,0,6.4,0,9.6c0,2.1,0.2,2.3,2.4,2.3c4.6,0,9.1,0,13.7,0c1,0,2.1,0.1,2.5-1.3
				c0.3-1.1,1.3-1,2.2-1.1c1.9,0,3.8,0,5.8,0c1.8-0.1,2.1-0.3,2.1-2.1c-0.1-5.8,0.2-11.7-0.3-17.5c-0.4-4.7-0.2-4.9,4.5-4.9
				c3.4,0,6.7,0,10.1,0c2.2,0,2.3,0.2,2.3,2.3c-0.1,2.7-0.1,5.4-0.2,8.2c0,1.6,0,1.6,1.5,1.6c2.6-0.1,5.1-0.2,7.7-0.5
				c2.6-0.3,2.7-0.1,3.7,2.3c0.7,1.6,1.4,3.2,2,4.9c0.5,1.2,1.3,1.7,2.5,1.8c3.9,0.4,3.9,0.4,5.7-3.2c1.8-3.8,3.6-7.7,5.5-11.5
				c0.9-1.8,1.2-3.6,1-5.6c-0.2-2.1-0.4-4.1-0.7-6.2c-0.2-2.3,0.1-2.8,2.3-2.8c2.6-0.1,5.3,0,7.9,0c2.1,0,2.4,0.3,2.6,2.3
				c0.5,6.2,1,12.4,1.5,18.6c0.3,3.8,0.7,7.6,1,11.5c0.1,1.1,0.6,1.6,1.7,1.6c3,0.1,5.9,0.3,8.9,0.3c1.5,0,1.6-0.2,1.5-1.7
				c-0.9-7.5-1.9-15.1-2.8-22.6c-1.1-8.6-2.1-17.1-3.2-25.7c-0.3-2.6-0.7-5.2-1-7.9c-0.2-1.8,0-1.9,1.7-2.1
				c5.1-0.5,10.2-0.4,15.3-0.5c2.2,0,2.4,0.2,2.4,2.5c-0.1,8.1,0,16.2-0.4,24.2c-0.2,3.5-0.1,3.5,3.5,3.5c3.4,0,6.9,0,10.3,0
				c2,0,2.2,0.2,2.5,2.1c0.9,5.3,1.8,10.6,2.6,15.9c0.4,3,2.7,4.6,4.5,6.5c1,1,2,0.3,2.1-1.3c0.1-4.3,0-8.6,0.2-12.9
				c0.2-5.2,0.5-10.4,0.8-15.6c0.1-1.8,0-3.5,0.1-5.3c0.3-8.3,0.7-16.6,1.3-24.9c0.5-6.2,0.6-12.5,1.1-18.7
				c0.5-5.9,0.6-11.8,1.2-17.7c0.2-2.3,0.2-4.6,0-7c-0.4-6.7-0.5-13.4,0-20.1c0.1-2,0.1-4,0.2-6c0.2-5.6,0.3-11.2,0.5-16.8
				c0.2-4.1,0.7-8.3,1-12.4c0.2-2.9,0.3-5.9,0.1-8.8c-0.5-8.7-0.3-17.4-0.2-26.1c0.1-7.5,0.3-15,0.7-22.5c0.1-1.8,0-3.7,0.1-5.5
				c0.5-11.5,0.4-23,0.6-34.5c0.1-7.4,0.3-14.9,0.6-22.3c0.3-7.8,0.2-15.7,0.4-23.5c0.1-6,0-12-0.1-18c-3,7.2-7.1,13.8-10.8,20.6
				c-3.7,6.8-6.9,13.9-10.4,20.8c-2.5,5-5.5,9.7-8.4,14.5c-2.1,3.5-4.6,6.7-6.3,10.5c-1.5,3.2-3.9,5.8-6.2,8.5
				c-5.1,6.2-9.9,12.8-14.9,19.1c-5.4,6.8-10.9,13.4-16.7,19.8c-1,1.1-2.1,2.2-3.2,3.2c-3.6,3.3-6.1,7.4-9.1,11.1
				c-4.2,5.2-8.2,10.4-13.5,14.6c-0.4,0.3-0.9,0.7-1.4,1c-0.6,0.4-1.2,0.4-1.7-0.2c-0.5-0.5-0.6-1.1-0.3-1.8c1.1-2.1,2-4.2,3.2-6.2
				c4.1-6.4,7.3-13.1,9.8-20.2c0.5-1.5,1.3-2.9,2.1-4.3c2-3.6,3.6-7.3,5.1-11.1c0.9-2.3,2-4.6,3.2-6.7c2.6-4.4,4.4-9.2,6.9-13.7
				c4.8-8.5,9-17.3,14.2-25.6c6-9.6,11.4-19.6,16.7-29.7c3.8-7.2,6.6-14.9,9.6-22.5c1.9-4.7,3.9-9.3,6.4-13.7
				c2.3-4,4.3-8.2,5.6-12.7c1.1-3.7,2.9-7.1,4.4-10.6c2.1-4.8,4.3-9.6,6.9-14.2c0.7-1.2,0.6-2.1-0.2-3.2c-3.2-4.6-3.8-9.5-1.2-14.7
				c0.9-1.8,0.8-1.8-1-3c-2.2-1.5-3.8-3.6-5.8-5.4c-3.4-3.1-6.5-6.4-10.5-8.7c-2.6-1.6-5.3-2.5-8.3-2.9c-2.3-0.3-4.6-0.9-6.8-1.2
				c-6.3-0.9-11.8-4-17.1-7.3c-7-4.4-12.8-10-18.2-16.2c-7-8-13.4-16.5-20-24.9c-6.8-8.6-12-18.1-16.9-27.8
				c-1.7-3.4-3.3-6.7-5.1-10.1c-0.4-0.8-0.8-1.6-1.4-2.2c-3.5-3.9-6-8.4-8.5-13c-3-5.6-6.7-10.7-9.7-16.2c-1.9-3.6-4-7.1-5.5-10.9
				c-0.3-0.7-0.6-1.5-0.5-2.3C354.7,13,355.9,13,357,13z M380.5,47.5c0.1-1.2,0.8-2.2,1.7-3c0.6-0.6,0.5-1.3-0.1-1.9
				c-0.7-0.7-1.1-0.2-1.5,0.3c-0.3,0.3-0.6,0.6-0.8,0.8c-1.1,1.2-1.2,1.5-0.2,2.8C379.8,46.9,380.2,47.2,380.5,47.5
				c0.1,0.9,0.6,1.7,1.1,2.4c4.6,8,8.5,16.3,12.7,24.5c3.6,7.2,7.8,14,12.8,20.3c6.7,8.4,13,17.3,20.1,25.3
				c4.3,4.9,8.9,9.4,14.3,13.1c6.3,4.3,13.1,7.4,20.8,8.1c0.8,0.1,1.6,0.4,2.2-0.4c1.3-1.7,3-2.9,4.6-4.2c0.4-0.3,0.7-0.7,0.5-1.2
				c-0.2-0.5-0.6-1-1.2-1.1c-0.6-0.1-0.8,0.4-1.2,0.7c-1.4,1.4-2.8,2.9-4.3,4.2c-0.7,0.6-1.6,1.3-2.5,0.5c-0.9-0.9-0.1-1.8,0.5-2.5
				c0.9-1,1.9-1.9,2.9-2.9c0.6-0.6,1.1-1.1,1.7-1.7c0.4-0.4,0.4-0.9,0-1.3c-0.4-0.4-0.9-0.4-1.3-0.1c-0.4,0.4-0.8,0.7-1.2,1.1
				c-1.2,1.3-2.4,2.6-3.6,3.9c-0.6,0.6-1.3,1.2-2.1,0.6c-0.9-0.6-0.7-1.5-0.3-2.4c0.2-0.5,0.6-0.9,1-1.3c1.1-1.3,2.3-2.4,3.6-3.5
				c0.3-0.3,0.9-0.5,0.5-1.2c-0.9,0.3-1.6,0.9-2.3,1.6c-1.2,1.2-2.4,2.4-3.6,3.5c-0.6,0.6-1.4,1.4-2.2,0.5c-0.8-0.8-0.4-1.6,0.2-2.4
				c0.6-0.8,1.3-1.6,2.1-2.3c1.1-0.9,2-1.8,3-2.7c0.3-0.3,0.3-0.7,0-1.1c-0.4-0.4-0.7-0.2-1,0.1c-1.4,1.4-2.8,2.8-4.2,4.2
				c-0.6,0.6-1.1,1.1-1.9,1.3c-1.2,0.3-1.9-0.3-1.6-1.5c0.1-0.6,0.5-1,0.8-1.5c1-1.4,2.3-2.4,3.6-3.4c0.5-0.4,1.3-0.6,1.5-1.4
				c-0.8-0.5-1.2,0.1-1.6,0.5c-1.6,1.4-3.2,2.9-4.9,4.3c-1.1,0.9-2.3,1.8-3.8,1.8c-0.5,0-1-0.1-1.2-0.6c-0.2-0.5-0.1-1,0.3-1.3
				c0.8-0.7,1.5-1.4,2.3-2.1c1.8-1.5,3.6-2.9,5.4-4.4c0.4-0.3,0.8-0.6,0.6-1.2c-0.5-1.3-2-1.7-3-0.7c-2.1,2.1-4.5,3.8-6.5,6.1
				c-0.2,0.2-0.5,0.5-0.7,0.6c-0.4,0.2-0.9,0.4-1.4,0.1c-0.6-0.3-0.7-0.9-0.5-1.5c0.2-1,0.7-1.8,1.3-2.5c1.7-1.7,3.3-3.5,5.3-4.9
				c0.5-0.4,1.1-0.8,0.5-1.5c-0.6-0.7-1.2-1.1-2.1-0.3c-0.2,0.2-0.4,0.5-0.7,0.7c-2,1.7-4,3.5-5.9,5.2c-0.5,0.5-1.1,0.9-1.9,1
				c-0.6,0.1-1.3,0.1-1.7-0.5c-0.5-0.7-0.1-1.3,0.4-1.7c1-1,1.9-1.9,3-2.8c1.5-1.3,3.1-2.6,4.6-3.9c1-0.9,0.8-1.3-0.4-2.5
				c-0.7-0.7-1.3-1.2-2.1-0.1c-1.7,2.3-4.2,3.6-6.5,5.2c-0.5,0.4-1.1,0.6-1.7,0.9c-0.6,0.2-1.3,0.3-1.8-0.3
				c-0.5-0.7-0.1-1.2,0.4-1.7c1.2-1.3,2.5-2.5,4-3.4c1.3-0.9,2.5-2,3.7-3.1c0.4-0.4,0.6-0.7,0.2-1.2c-0.4-0.4-0.9-0.7-1.5-0.3
				c-0.3,0.2-0.5,0.4-0.7,0.6c-1.9,1.9-4.2,3.5-6.3,5.2c-1.6,1.3-2.5,1.4-3.2,0.8c-0.7-0.7-0.3-1.8,1.3-3.2c2-1.7,4.1-3.3,6.1-5
				c1.1-0.9,1.1-1.4,0.1-2.3c-0.9-0.8-1.6-0.5-2.3,0.2c-1.9,1.7-3.8,3.5-5.7,5.2c-0.5,0.4-1,0.8-1.5,1.2c-0.4,0.2-0.9,0.3-1.4-0.1
				c-0.4-0.3-0.4-0.8-0.3-1.3c0.3-0.9,0.8-1.7,1.5-2.4c1.5-1.6,3.1-3,4.8-4.3c1.6-1.2,1.7-1.4,0.9-2.4c-1-1.2-1.2-1.2-2.7-0.1
				c-2.1,1.5-3.9,3.3-5.5,5.4c-0.5,0.6-1.1,1-1.9,0.6c-0.8-0.5-1-1.3-0.7-2.1c0.4-1,1-1.8,1.7-2.6c1.1-1.1,2.2-2.3,3.5-3.2
				c0.5-0.4,1.1-0.7,1.4-1.3c0.1-0.2,0.1-0.5-0.2-0.6c-0.1-0.1-0.3-0.1-0.4-0.1c-0.6,0.1-0.9,0.6-1.4,0.9c-1.4,1.3-2.8,2.6-4.2,3.9
				c-0.8,0.7-1.9,1.4-2.8,0.6c-1.1-0.9-0.1-1.9,0.6-2.7c1.4-1.7,3.1-3.3,4.8-4.7c1-0.9,1-1.3,0.1-2.1c-0.8-0.9-1.4-0.4-2,0.3
				c-1.6,1.7-3.1,3.4-4.7,5.2c-0.7,0.8-1.4,1.5-2.4,2c-0.7,0.4-1.4,0.5-2-0.1c-0.6-0.6-0.4-1.3-0.1-2c0.5-1,1.2-1.9,2-2.7
				c1.5-1.8,3.3-3.3,4.9-4.9c0.4-0.3,0.9-0.7,0.4-1.5c-2,1.6-4.1,2.9-5.9,4.6c-0.8,0.8-1.7,1.5-2.9,1.7c-1,0.1-1.7-0.8-1.3-1.7
				c0.2-0.5,0.7-0.9,1-1.3c1.8-1.9,3.8-3.7,6-5.2c1-0.7,0.9-1.3,0-2.1c-0.7-0.6-1.3-0.3-1.9,0.2c-1.7,1.4-3.4,2.9-4.8,4.7
				c-0.5,0.6-1,1.3-1.6,1.8c-0.5,0.4-1.3,0.9-1.9,0.3c-0.6-0.6-0.3-1.3,0-2c0.1-0.1,0.1-0.3,0.2-0.4c1.7-2.4,3.5-4.8,6.3-6.1
				c1.7-0.8,1.4-1.3,0.3-2.4c-0.6-0.6-1.3-0.6-1.9-0.1c-1.1,1-2.2,2.1-3.1,3.3c-0.6,0.8-1.2,1.5-2,2c-0.6,0.4-1.3,0.9-1.9,0.3
				c-0.7-0.6-0.2-1.3,0.2-1.9c0.2-0.3,0.5-0.7,0.7-1c1.4-1.7,2.7-3.5,4.7-4.7c0.4-0.2,1.2-0.5,0.7-1.2c-0.5-0.6-1,0-1.5,0.3
				c-0.5,0.4-1,0.8-1.5,1.2c-1.2,1-2.4,2.1-3.6,3.1c-0.6,0.5-1.1,0.9-1.8,1.1c-0.5,0.1-1,0.2-1.3-0.2c-0.4-0.5-0.4-1-0.1-1.6
				c0.2-0.3,0.4-0.7,0.7-0.9c1.7-1.6,3.4-3.1,5.2-4.6c0.4-0.4,0.9-0.7,1.3-1.1c0.1-0.1,0.2-0.5,0.1-0.7c-0.1-0.4-0.5-0.4-0.8-0.2
				c-1.2,0.7-2.5,1.5-3.4,2.6c-0.7,0.9-1.5,1.6-2.5,2.2c-0.6,0.3-1.2,0.4-1.7-0.2c-0.4-0.5-0.5-1.2-0.1-1.8c0.3-0.4,0.6-0.7,0.9-1.1
				c1.2-1.3,2.4-2.5,3.9-3.5c0.8-0.5,1.2-1.1,0.4-1.9c-0.9-0.9-1.4,0-1.9,0.6c-0.8,1.1-1.8,2-2.8,2.9c-0.8,0.8-1.8,1.3-2.9,1.7
				c-0.6,0.2-1.1,0.2-1.5-0.3c-0.3-0.4-0.3-0.9-0.1-1.4c0.4-0.8,1-1.4,1.6-2.1c1.3-1.3,2.6-2.6,4-3.8c0.7-0.6,0.7-1.1,0.1-1.8
				c-0.7-0.8-1.2-0.5-1.8,0.1c-1.2,1.3-2.5,2.5-3.9,3.6c-0.9,0.6-1.7,1.7-2.9,0.7c-0.7-0.5-0.2-1.5,1-2.9c1.3-1.4,2.8-2.6,4.3-3.8
				c0.4-0.3,0.7-0.7,0.3-1.2c-0.4-0.5-0.9-0.6-1.5-0.2c-0.9,0.7-1.8,1.5-2.8,2.3c-0.7,0.6-1.3,1.2-2.2,1.5c-0.4,0.1-0.8,0.1-1.1-0.3
				c-0.3-0.3-0.4-0.8-0.2-1.1c0.2-0.4,0.6-0.8,0.9-1.1c1-1,2.2-1.9,3.3-2.7c1.1-0.8,1.1-1.4,0.4-2.1c-0.9-0.9-1.6-0.5-2.2,0.2
				c-0.6,0.7-1.2,1.5-1.9,2.2c-0.6,0.6-1.2,1.3-2.1,0.7c-0.8-0.6-0.3-1.4,0.1-2.1c0.7-1.2,1.6-2.2,2.6-3.1c0.5-0.5,0.7-1,0.2-1.7
				c-0.5-0.6-1.1-0.6-1.7-0.1c-0.9,0.8-1.8,1.6-2.7,2.3c-0.5,0.4-1,0.9-1.7,0.3c-0.6-0.5-0.5-1.2-0.2-1.8c0.5-1,1.2-1.7,2-2.3
				c0.6-0.5,1.8-0.8,0.8-2c-0.8-1-1.3-1-2.6-0.1c-0.3,0.2-0.5,0.4-0.8,0.5c-0.4,0.3-0.9,0.5-1.3,0.1c-0.4-0.4-0.3-0.9-0.1-1.3
				c0.3-0.8,1-1.3,1.5-1.9c0.3-0.4,0.2-0.7-0.1-1.1c-0.3-0.3-0.7-0.5-1.1-0.3c-0.5,0.4-1,0.8-1.5,1.2
				C382.2,47.9,381.4,48,380.5,47.5z M414.6,351.9c2-1.6,3.5-3.8,5.3-5.6c5.3-5.2,9.9-11.1,14.8-16.7c4.5-5.2,8.6-10.8,12.7-16.2
				c0.4-0.5,1-1,0.9-1.7c-0.2-1.1,0.5-1.8,1.1-2.5c6-8.1,12.2-16,17.3-24.7c4.3-7.3,8.3-14.8,12-22.4c3.2-6.6,6.6-13.2,10-19.6
				c2.2-4.1,4.6-8.1,6.2-12.4c0.7-2,0.7-3.8-0.2-5.5c-1.3-2.6-2.7-5.1-4-7.6c-0.2-0.4-0.4-0.9-1.1-0.6c-1.4,0.8-2.5,0.1-3.6-0.6
				c-1-0.6-1.9-1.2-2.8-1.8c-0.4-0.3-0.9-0.6-1.3-0.1c-0.5,0.6,0,1.1,0.4,1.4c1.4,1,2.9,2,4.3,3c0.9,0.6,1.9,1.1,2.9,1.8
				c0.8,0.5,1.4,1.2,0.7,2.2c-0.6,0.9-1.4,0.5-2.1,0.1c-1.9-1.1-3.7-2.2-5.5-3.4c-0.5-0.3-0.9-0.6-1.4-0.9c-0.3-0.2-0.6-0.2-0.9,0.1
				c-0.2,0.3-0.3,0.6-0.1,0.9c0.3,0.6,0.8,1,1.3,1.3c1.2,0.8,2.5,1.5,3.7,2.2c1.1,0.7,2.2,1.3,3.2,2.1c0.6,0.4,1.1,1,0.7,1.8
				c-0.5,0.8-1.2,0.7-1.9,0.4c-0.7-0.3-1.5-0.7-2.1-1.1c-1.8-1.1-3.8-2-5.6-3.2c-0.8-0.6-1.5-0.2-1.8,0.7c-0.2,0.8,0.4,0.9,0.8,1.2
				c2.5,1.5,5.1,3,7.6,4.5c0.9,0.5,1.8,1.1,2.3,2.1c0.2,0.4,0.4,0.8,0.2,1.1c-0.2,0.4-0.7,0.4-1.1,0.3c-1-0.2-1.8-0.6-2.7-1.1
				c-2.6-1.4-5.1-3-7.5-4.8c-1.1-0.8-1.5-0.4-1.9,0.9c1,0.1,1.7,0.4,2.5,0.9c2.5,1.7,5.1,3.4,7.6,5.1c0.5,0.4,1,0.8,1.4,1.3
				c0.4,0.5,0.9,1.1,0.3,1.7c-0.4,0.5-1,0.2-1.5,0c-1-0.5-2.1-0.9-3-1.5c-2.8-1.7-5.5-3.5-8.3-5.3c-0.8,1.1-0.8,1.7,0.6,2.4
				c2.3,1.2,4.5,2.7,6.7,4.1c0.8,0.5,1.5,1.2,1.9,2.1c0.2,0.4,0.4,0.9,0.1,1.4c-0.4,0.5-0.9,0.3-1.3,0.1c-0.7-0.4-1.4-0.8-2.1-1.2
				c-2.2-1.3-4.4-2.7-6.6-4c-1.1-0.7-1.5-0.5-2,0.7c-0.6,1.3-0.5,1.7,0.8,2.5c2.3,1.4,4.6,2.9,6.9,4.3c0.9,0.5,1.8,1.1,2.3,2
				c0.2,0.3,0.5,0.7,0.2,1.1c-0.3,0.5-0.8,0.4-1.3,0.3c-0.4-0.1-0.8-0.2-1.1-0.4c-1.8-0.8-3.6-1.7-5.3-2.8c-1-0.7-2-1.3-3-1.9
				c-0.9-0.5-1.4-0.2-1.8,0.8c-0.3,0.8,0,1.2,0.6,1.6c2.4,1.5,4.9,3.1,7.3,4.6c0.5,0.3,1,0.5,1.5,0.8c0.5,0.4,1,0.9,0.7,1.6
				c-0.3,0.7-0.9,0.5-1.5,0.5c-1.2,0-2.2-0.6-3.1-1.1c-1.8-1.1-3.7-2.3-5.6-3.3c-1.2-0.7-1.6-0.5-2.2,0.8c-0.5,1.1-0.1,1.8,1,2.3
				c3.1,1.6,6.1,3.2,9.1,4.8c0.5,0.3,1.3,0.6,1,1.4c-0.3,0.8-1.1,0.9-1.8,0.7c-0.7-0.2-1.4-0.5-2-0.8c-2.6-1.2-5.2-2.5-7.8-3.7
				c-0.6-0.3-1.1-0.4-1.4,0.3c-0.3,0.6-0.2,1.1,0.4,1.4c0.1,0.1,0.3,0.2,0.4,0.3c2.4,1.5,4.8,2.9,7.2,4.3c0.6,0.3,1.1,0.6,1.5,1.1
				c0.6,0.7,0.3,1.4-0.6,1.6c-0.7,0.1-1.3,0-1.9-0.3c-1.2-0.5-2.3-1.1-3.4-1.8c-1.4-0.9-2.9-1.8-4.3-2.6c-0.4-0.3-0.9-0.4-1.2,0.2
				c-0.2,0.4-0.1,0.8,0.2,1.1c0.4,0.4,0.9,0.7,1.3,1c1.4,0.8,2.8,1.6,4.2,2.4c1.1,0.6,2.1,1.3,2.7,2.3c0.3,0.5,1.2,1,0.7,1.6
				c-0.5,0.8-1.4,0.2-2-0.1c-2.4-1.2-4.7-2.5-7-3.7c-0.8-0.4-1.7-1.6-2.6-0.1c-0.8,1.5,0.6,1.8,1.3,2.3c2,1.2,4,2.3,6,3.5
				c1.5,0.9,2.3,2.2,1.7,2.8c-1,0.9-2,0.1-2.8-0.4c-2.2-1.2-4.3-2.4-6.5-3.6c-0.6-0.3-1.3-1.1-1.8-0.1c-0.5,1,0.5,1.2,1,1.5
				c1.6,0.9,3.3,1.7,4.9,2.6c1.1,0.6,2.3,1.2,2.9,2.4c0.2,0.4,0.7,0.8,0.2,1.3c-0.3,0.3-0.8,0.3-1.1,0.1c-1.3-0.5-2.5-1-3.7-1.6
				c-1.6-0.8-3.2-1.8-4.9-2.6c-1-0.5-2,0.1-2.1,1.1c0,0.8,0.6,1.1,1.2,1.4c2.3,1.2,4.6,2.3,6.9,3.4c0.8,0.4,1.6,0.8,2.2,1.4
				c0.3,0.4,0.6,0.8,0.3,1.3c-0.3,0.5-0.8,0.6-1.2,0.5c-0.9-0.2-1.9-0.5-2.7-0.9c-2.2-1-4.5-2-6.6-3.4c-0.6-0.4-1.4-1.1-2.1-0.1
				c-0.7,1.1,0.3,1.3,0.9,1.7c1.8,1.1,3.7,2.3,5.5,3.4c1.3,0.8,2.2,1.9,3.1,3c0.1,0.2,0.2,0.5,0.1,0.7c-0.1,0.3-0.5,0.4-0.8,0.3
				c-0.4-0.2-0.9-0.4-1.3-0.6c-2.5-1.5-5.1-3.1-7.6-4.6c-0.6-0.4-1.3-1.3-2-0.3c-0.6,1,0.4,1.4,1,1.8c0.1,0.1,0.3,0.2,0.4,0.2
				c2.3,1.2,4.4,2.7,6.3,4.4c0.5,0.4,1.6,0.6,1.1,1.5c-0.4,0.7-1.3,0.2-2-0.1c-0.8-0.4-1.6-0.8-2.3-1.3c-1.6-1-3.2-2.1-4.8-3.2
				c-1-0.7-1.6-0.4-2.1,0.5c-0.5,0.9-0.7,1.6,0.4,2.1c2.3,1.2,4.4,2.6,7,3.1c0.6,0.1,1.4,0.2,1.3,1.1c-0.1,0.9-0.9,1.1-1.6,1.1
				c-1.3,0.1-2.5-0.3-3.7-0.8c-1.3-0.5-2.5-1.2-3.7-1.7c-0.8-0.4-1.8-1.3-2.4,0.1c-0.5,1.2,0.8,1.3,1.5,1.8c1.3,0.8,2.6,1.6,3.9,2.4
				c1.7,1.1,2.3,1.8,1.7,2.4c-1,1.1-2.1,0.2-3-0.2c-1.5-0.7-2.9-1.6-4.4-2.5c-0.8-0.4-1.6-1.1-2.2,0.1c-0.6,1.1,0.4,1.4,1,1.7
				c1.8,1,3.5,1.9,5.3,2.8c0.8,0.4,1.5,0.9,2.1,1.6c0.2,0.3,0.4,0.5,0.2,0.9c-0.2,0.4-0.6,0.5-1,0.5c-1.3-0.2-2.4-0.8-3.6-1.4
				c-1.5-0.8-3.1-1.7-4.6-2.7c-0.8-0.5-1.3-0.4-1.8,0.4c-0.6,1-0.5,1.5,0.7,2c2.9,1.4,6,2.7,8.7,4.6c0.5,0.3,1.4,0.5,1,1.3
				c-0.4,0.9-1.2,0.4-1.9,0.2c-0.3-0.1-0.6-0.2-0.9-0.4c-2.4-1.2-5-2.1-7.3-3.7c-0.3-0.2-0.6-0.3-0.8-0.5c-0.6-0.3-1.2-0.5-1.7,0.3
				c-0.4,0.8,0.1,1.2,0.7,1.6c0.7,0.5,1.5,0.9,2.2,1.4c1.6,1.1,3.2,2.1,4.8,3.2c0.4,0.3,0.8,0.7,0.3,1.2c-0.3,0.4-0.7,0.2-1.1,0
				c-2.2-0.9-4.1-2.2-6-3.5c-0.5-0.3-1.1-0.7-1.6-1c-0.4-0.2-0.8,0-1,0.3c-0.2,0.4-0.3,0.8,0.1,1.1c0.4,0.3,0.8,0.5,1.2,0.8
				c2.1,1.2,4.1,2.5,6,4c0.6,0.5,2,0.9,1.4,1.8c-0.5,0.9-1.6,0-2.4-0.3c-0.7-0.3-1.3-0.7-1.9-1c-1.5-0.9-2.9-1.9-4.4-2.9
				c-0.6-0.4-1.3-0.7-1.9,0c-0.6,0.8-0.4,1.5,0.5,2c1.1,0.7,2.2,1.3,3.3,1.9c1.4,0.8,2.7,1.7,4,2.6c0.3,0.2,0.5,0.5,0.3,0.8
				c-0.2,0.3-0.5,0.4-0.8,0.3c-0.5-0.1-0.9-0.3-1.3-0.6c-2-1-4-2.1-5.9-3.1c-0.4-0.2-0.8-0.5-1.3-0.6c-0.2-0.1-0.5,0.1-0.6,0.2
				c-0.3,0.2-0.2,0.6,0,0.8c0.3,0.3,0.7,0.7,1.1,0.9c2.4,1.6,4.8,3.1,7.2,4.7c0.7,0.5,1.9,0.7,1.4,1.9c-0.5,1.1-1.5,0.6-2.3,0.3
				c-0.8-0.3-1.5-0.6-2.2-1c-1.7-1-3.4-2.1-5.1-3.2c-0.5-0.3-0.9-0.6-1.4-0.9c-0.3-0.1-0.7-0.1-0.8,0.2c-0.2,0.3-0.1,0.7,0.1,0.9
				c0.6,0.5,1.3,0.9,2,1.3c1.2,0.7,2.4,1.3,3.4,2.3c0.3,0.3,0.4,0.7,0.1,1.1c-0.2,0.3-0.5,0.4-0.8,0.3c-0.5-0.1-1.1-0.3-1.6-0.5
				c-1.3-0.5-2.5-1.4-3.7-2.1c-0.6-0.4-1.3-0.8-1.8,0.1c-0.5,0.9-0.4,1.5,0.5,1.9c1.3,0.7,2.5,1.4,3.8,2.1c0.9,0.5,1.6,1,2.3,1.8
				c0.3,0.4,0.6,0.8,0.3,1.3c-0.3,0.4-0.7,0.3-1.1,0.2c-0.5-0.2-1.1-0.4-1.6-0.6c-1.6-0.7-3.2-1.5-4.7-2.4c-0.6-0.4-1.3-0.7-1.8,0.3
				c-0.4,0.8,0.2,1.1,0.8,1.4c1.4,0.8,2.7,1.7,4,2.6c0.7,0.5,1.3,1.2,1.9,1.8c0.2,0.2,0.2,0.6,0,0.9c-0.2,0.3-0.5,0.4-0.8,0.3
				c-0.6-0.2-1.2-0.4-1.8-0.7c-1.4-0.8-2.8-1.6-4.2-2.4c-0.5-0.2-1.1-0.8-1.5-0.2c-0.4,0.6,0.3,0.9,0.8,1.2c0.2,0.1,0.4,0.2,0.6,0.4
				c1.1,0.7,2.2,1.3,3.3,2c0.8,0.5,1.6,1.1,2.3,1.7c0.4,0.3,0.9,0.8,0.6,1.4c-0.3,0.6-0.9,0.5-1.5,0.3c-0.4-0.2-0.9-0.4-1.3-0.5
				c-2-0.7-3.8-1.8-5.5-2.9c-0.4-0.3-0.9-0.5-1.3,0c-0.3,0.5,0,0.9,0.5,1.2c0.5,0.3,1,0.5,1.5,0.8c1.2,0.6,2.4,1.2,3.6,2
				c0.7,0.5,1.6,1.2,0.9,2.2c-0.5,0.8-1.3,0.2-1.9-0.1c-1.8-0.9-3.6-1.8-5.4-2.7c-0.4-0.2-0.8-0.3-1.1,0.1c-0.2,0.4-0.2,0.8,0.1,1.1
				c0.3,0.3,0.8,0.6,1.2,0.8c1.1,0.7,2.2,1.3,3.3,1.9c0.6,0.4,1.6,0.8,1,1.8c-0.5,0.9-1.3,0.2-1.9-0.1c-1.4-0.7-2.8-1.5-4.3-2.2
				c-0.3-0.1-0.7-0.2-0.9,0.1c-0.2,0.3,0,0.6,0.3,0.8c0.9,0.5,1.8,1,2.7,1.6c0.6,0.4,1.2,0.8,1.7,1.3c0.3,0.3,0.6,0.8,0.2,1.3
				c-0.3,0.4-0.7,0.3-1.1,0.1c-1.1-0.6-2.3-1.2-3.4-1.7c-0.5-0.3-1.2-1-1.7-0.3c-0.5,0.8,0.6,0.9,1.1,1.2c0.6,0.4,1.2,0.8,1.8,1.2
				c0.3,0.2,0.6,0.3,0.8,0.6c0.5,0.4,1.1,0.9,0.6,1.6c-0.4,0.6-1,0.3-1.5,0.1c-0.5-0.2-1-0.6-1.5-0.8c-0.7-0.4-1.3-1-2.1-1
				c-0.2,0.3,0.1,0.4,0.2,0.6c0.6,0.5,1.2,1,0.8,1.8c-0.6,1-1.4,0.2-2.1,0c-0.2-0.1-0.3,0-0.3,0.2c0.1,0.3,0.4,0.4,0.7,0.6
				c0.7,0.3,1.7,0.6,1.3,1.6c-0.3,1-1.3,1.1-2.2,0.8c-0.5-0.1-1.1-0.5-1.4,0.2c0.2,0.7,0.9,0.7,1.3,1.1c0.3,0.3,0.5,0.7,0.3,1.1
				c-0.2,0.3-0.5,0.3-0.8,0.3c-0.6,0.1-1.2-0.7-2.2-0.2c1.1,0.8,2.1,1.5,0.7,2.7C414.3,350.6,414.7,351.3,414.6,351.9
				c-0.8,0-1.5,0-2.6,0c0.9,1.6-1.5,2.1-1,3.9C412.5,354.5,413.5,353.2,414.6,351.9z M510.8,536.7c0.1,0,0.2,0,0.2,0
				c0,5.5,0,11,0,16.5c0,3.1-0.1,6.2,0.4,9.3c0.3,1.8,0.7,2,2.4,1.4c2.5-0.9,4.8-2.1,6.8-3.9c0.8-0.7,1.1-1.4,1-2.5
				c-0.3-3.4-0.6-6.9-0.6-10.3c0-10.1-0.5-20.1-1-30.2c-0.4-8.9-1-17.7-1.3-26.6c-0.3-7-0.6-14.1-1-21.1c-0.6-10-1.1-19.9-1.4-29.9
				c-0.4-9.6-0.7-19.2-0.9-28.8c-0.2-11.7-0.6-23.3-1-35c-0.4-14.5-0.4-28.9-0.6-43.4c0-1.4,0.1-2.7,0.1-4.1
				c-0.1-6.7-0.2-13.4-0.5-20.1c-0.3-6.5-0.4-13.1-0.7-19.7c-0.4-8.6-0.9-17.2-1.4-25.9c-0.1-1.6-0.1-3.2-0.2-4.8
				c-0.3-5.4-0.7-10.8-0.7-16.3c0-6.9-0.3-13.7-0.7-20.6c-0.6-9.2-1.9-18.3-2.3-27.5c-0.1-1.5-0.3-3-0.4-4.5c0-0.4-0.1-0.9-0.6-0.8
				c-0.5,0.1-0.5,0.6-0.4,1c0,0.2,0.1,0.5,0.1,0.7c0.3,4.5,1,8.9,1.1,13.4c0.1,6.4,0.3,12.8,0.5,19.2c0,0.8,0.1,1.6,0.2,2.4
				c0.5,3.7,0.6,7.5,0.5,11.2c-0.2,9-0.2,17.9-0.2,26.9c0,14-0.1,28,0.4,42c0.4,12,0.5,24,0.9,36c0.4,9.3,0.3,18.7,0.5,28
				c0.3,10.2,0.1,20.5,0.4,30.7c0.3,10.2,0.2,20.5,0.6,30.7c0.2,4.6,0.2,9.3,0.3,13.9c0,4.4,0.1,8.8,0.1,13.1c0,9.4,0.2,18.7-0.2,28
				c-0.4,9.8-0.1,19.7-0.4,29.5C510.7,522.2,510.8,529.5,510.8,536.7z M583.2,144.7c0.6,0.1,0.8,0.4,0.9,0.8c0.3,1.5,0.7,3,1,4.4
				c0.4,2.4,0.7,4.7,0.7,7.1c0,0.5,0.1,1,0.8,1c0.5,0,0.6-0.5,0.6-0.9c0-1.4,0-2.7-0.1-4.1c-0.2-2.5-0.5-4.9-0.7-7.4
				c-0.1-0.9,0-2,1-2.2c1.1-0.2,1.4,1,1.6,1.7c0.7,3,1.4,5.9,1.4,9c0,0.8,0,1.6,0.1,2.4c0,0.5,0.2,1,0.8,1c0.6,0,0.8-0.5,0.8-1
				c0-1-0.1-1.9-0.2-2.9c-0.2-2.3-0.8-4.6-0.7-6.9c0-0.7,0.2-1.3,0.9-1.5c0.8-0.2,1.4,0.2,1.7,1c0.2,0.6,0.4,1.2,0.5,1.8
				c0.5,2.6,1,5.2,1,7.8c0,1,0.6,1.4,1.6,1.3c0.9-0.1,0.8-0.9,0.7-1.5c-0.3-2.5-0.6-4.9-0.9-7.4c-0.1-1-0.3-1.9-0.2-2.9
				c0.1-0.5,0.4-0.9,0.9-1c0.5-0.1,0.9,0.2,1.2,0.6c0.2,0.3,0.3,0.6,0.4,0.9c1,2.6,1.8,5.3,1.7,8.2c0,0.7,0.1,1.4,0.2,2.1
				c0.1,0.5,0.4,0.9,1,0.8c0.5-0.1,0.8-0.5,0.8-1.1c0-0.3,0-0.6-0.1-1c-0.1-2.9-0.3-5.7-0.4-8.6c0-0.7-0.2-1.4,0.2-2.1
				c0.2-0.5,0.7-1,1.3-0.9c0.6,0,0.8,0.5,0.9,1c0.6,2.4,1.6,4.7,1.2,7.3c-0.2,1.2,0,2.4,0,3.6c0,0.4,0.2,0.8,0.6,0.9
				c0.5,0.1,0.9-0.3,1-0.8c0.1-0.6,0-1.1,0.1-1.7c0.1-2.5-0.4-4.9-0.4-7.4c0-1,0-1.9,0.6-2.8c0.3-0.4,0.7-0.7,1.2-0.6
				c0.4,0.1,0.6,0.5,0.7,0.9c0.1,0.3,0.1,0.6,0.1,0.9c0.4,2.9,0.7,5.7,0.8,8.6c0,0.5,0.1,1.1,0.3,1.6c0.1,0.3,0.4,0.5,0.8,0.4
				c0.3,0,0.6-0.3,0.6-0.6c0-0.5-0.1-1-0.1-1.4c-0.1-2.9-0.2-5.8,0.3-8.6c0.1-0.7,0.3-1.5,1.1-1.7c0.8-0.1,1,0.6,1.4,1.1
				c0.1,0.1,0.1,0.5,0.4,0.3c0-0.6,0-1.1,0-1.7c0-0.8,0.1-1.7,1.1-1.8c1-0.1,1.3,0.8,1.6,1.5c0.4,1.4,0.7,2.8,0.8,4.2
				c0,1.9,0.1,3.8,0.1,5.8c0,0.5-0.2,1.3,0.7,1.3c0.9,0,0.8-0.8,0.7-1.4c0-0.3-0.1-0.6-0.1-1c-0.1-2.7-0.8-5.4-0.6-8.1
				c0.1-1-0.3-2.4,1.1-2.5c1.4-0.1,1.4,1.3,1.5,2.3c0.3,2.5,0.5,4.9,0.8,7.4c0.1,0.8-0.3,2.3,0.6,2.3c1.4-0.1,0.7-1.7,0.7-2.6
				c0-2.1-0.2-4.1-0.2-6.2c0-0.6,0.1-1.4,0.9-1.5c0.9-0.1,1.3,0.6,1.5,1.3c0.1,0.4,0.1,0.8,0.1,1.2c0.1,1.9,0.2,3.8,0.4,5.7
				c0.1,0.7-0.3,1.8,1.1,1.6c1.3-0.1,1.1-1.1,1-2c-0.2-1.6-0.5-3.2-0.6-4.7c-0.1-0.9,0-1.9,0-2.9c0-0.3,0.3-0.6,0.6-0.7
				c0.3-0.1,0.6,0.1,0.8,0.3c0.4,0.4,0.5,1,0.6,1.5c0.3,1.7,0.5,3.5,0.5,5.2c0,0.6,0,1.3,0.1,1.9c0.1,0.5,0.5,0.8,1.1,0.7
				c0.6-0.1,0.8-0.4,0.8-1c-0.1-0.4-0.2-0.8-0.2-1.2c-0.1-1.9-0.4-3.8,0-5.7c0.1-0.5,0.3-1.2,1-1.1c0.6,0.1,0.6,0.6,0.8,1.1
				c0.5,1.6,0.2,3.3,0.3,5c0.1,0.8-0.4,2.4,0.7,2.3c0.9-0.1,0.4-1.6,0.3-2.5c-0.2-1.6-0.4-3.2-0.3-4.8c0-0.6,0.2-1.1,0.9-1.2
				c0.6-0.1,0.8,0.4,1.1,0.8c0.7,1.4,1,2.8,1.2,4.4c0.1,1,0.1,2,1,3c0.6-1.2,0.5-2.3,0.4-3.4c-0.1-1-0.2-2.1-0.2-3.1
				c0-0.7,0.3-1.3,1-1.4c0.9-0.2,1.1,0.5,1.3,1.1c0.5,1.5,0.7,3.1,0.7,4.7c0,0.5-0.2,1.2,0.6,1.3c0.6-0.3,0.3-0.9,0.3-1.3
				c0-1.4,0-2.9,0-4.3c0-0.5,0.2-0.9,0.8-1.1c0.5-0.2,0.9,0.1,1.3,0.5c0.4,0.5,0.7,1.1,0.8,1.7c0.1,1,0.1,1.9,0.1,2.9
				c0,0.7,0.1,1.4,0.9,1.4c1,0,1.1-0.7,1-1.5c-0.1-1.2-0.3-2.4,0-3.6c0.2-0.7,0.2-1.6,1.2-1.5c0.9,0,1.1,0.8,1.3,1.5
				c0.3,1.1,0.3,2.2,0.4,3.3c0,0.6,0.1,1.2,0.8,1.2c0.8,0,0.7-0.7,0.6-1.3c-0.3-1.3-0.3-2.5-0.2-3.8c0-0.6,0.2-1.2,0.9-1.3
				c0.7-0.1,1.2,0.3,1.5,0.9c0.2,0.5,0.3,1.1,0.4,1.6c0.3,1,0,2,0.7,3c0.2-0.9,0.2-1.8,0.2-2.8c0-0.7,0.1-1.6,1.1-1.6
				c0.9,0,1.1,0.8,1.2,1.6c0.1,0.5,0,1,0.1,1.4c0.1,0.5,0,1,0.8,1c0.5-0.7,0.1-1.5,0-2.3c-0.1-0.4,0-0.8,0.4-1
				c0.5-0.3,0.9,0.1,1.2,0.4c0.5,0.5,0.7,1.3,0.9,1.9c0.1,0.4,0.4,0.7,0.9,0.6c0.5-0.1,0.6-0.5,0.6-0.9c0-0.6,0-1.1,0.1-1.7
				c0.1-0.7,0.4-1.3,1.2-1.3c0.7,0,1,0.5,1.1,1.1c0.1,0.6,0.2,1.3,0.3,1.9c0.1,0.4,0.3,0.8,0.8,0.7c0.6,0,0.8-0.4,0.8-1
				c0-0.9-0.5-2.1,0.9-2.3c1.1-0.1,1.2,1.1,1.5,1.9c0.1,0.4,0.4,0.7,0.9,0.7c0.5,0,0.7-0.4,0.7-0.8c0-0.2,0-0.3,0-0.5
				c0-0.5,0.1-1,0.6-1.2c0.5-0.2,0.9,0.2,1.2,0.6c0.7,1.1,1.4,1.6,2.1,0c0.1-0.3,0.5-0.2,0.9-0.1c2.8,0.4,5.5,0,8.7-1
				c-1.7-0.2-2.8-0.4-4-0.4c-4.6-0.1-9.1-0.1-13.6-0.6c-4.1-0.5-8.3-0.9-12.4-1.3c-4.2-0.4-8.4-1.2-12.6-1.6
				c-5.9-0.5-11.7-1.5-17.6-1.8c-5.7-0.3-11.5-0.5-17.2-0.5c-6.7,0.1-13.4,0.7-20.1,1.3c-5.3,0.4-10.6,1-15.9,2
				c-5.2,0.9-10.3,2.4-15.4,3.6c-3.8,0.9-7.5,2.1-11.4,2.9c-4.9,1-5.4,5.5-7.4,8.7c-0.2,0.3,0.1,0.6,0.4,0.7c0.3,0.1,0.6,0,0.8-0.3
				c0.1-0.1,0.1-0.3,0.2-0.4c0.3-0.7,0.7-1.4,1.6-1.1c0.8,0.3,1,1,1,1.7c0,1.4-0.1,2.9-0.1,4.3c0,0.6-0.5,1.3,0.4,2
				c0-1.1,0-1.9,0-2.8c0-1.8-0.1-3.7,0.4-5.5c0.6-1.9,1.3-2.9,2-2.5c1.3,0.7,0.9,1.9,0.8,3c-0.3,2.2-0.2,4.3-0.2,6.5
				c0,0.4,0,0.9,0.5,1c0.7,0.1,0.8-0.5,0.7-1c0-2.1-0.1-4.2-0.2-6.2c-0.1-1.1,0.1-2.2,0.6-3.3c0.2-0.4,0.5-0.7,0.9-0.7
				c0.6,0,0.9,0.4,1,0.9c0.1,0.4,0,0.8,0.1,1.2c0.3,2.5,0.4,4.9,0.1,7.4c-0.1,0.6-0.2,1.3,0.7,1.5c1,0.1,1.5-0.3,1.6-1.3
				c0.1-1.5,0-3-0.2-4.5c-0.2-1.5-0.3-3-0.2-4.5c0-0.6,0.3-1.3,1.1-1.4c0.7,0,0.8,0.7,0.9,1.2c0.7,2.5,1.1,5,1,7.6
				c0,0.6,0,1.1,0.1,1.7c0.1,0.5,0.5,0.8,1.1,0.8c0.5,0,0.9-0.3,1-0.8c0-0.6,0-1.1,0-1.7c0-2.5-0.6-4.9,0.1-7.4
				c0.2-0.8,0.3-2,1.4-1.9c1.1,0.1,1,1.3,1.1,2.1c0.1,2.3,0.1,4.6,0.1,7c0,0.6-0.1,1.3,0.2,1.9c0.2,0.3,0.5,0.4,0.8,0.3
				c0.2-0.1,0.4-0.3,0.4-0.6c0-0.2-0.1-0.5-0.1-0.7c-0.8-3.6-0.2-7.3-0.7-11c0-0.3,0-0.6,0.2-0.9c0.3-0.9,1.3-1.1,1.9-0.3
				c0.3,0.3,0.5,0.8,0.6,1.3c0.4,1.4,0.7,2.8,0.6,4.3c-0.1,2.1-0.2,4.2-0.3,6.2c0,0.7,0,1.4,0.9,1.4c0.9,0,0.7-0.7,0.7-1.2
				c-0.3-2.8,0-5.6,0-8.4c0-1.2,0.1-2.4,0.7-3.5c0.2-0.4,0.4-0.7,0.8-0.8c0.6,0,0.8,0.5,0.9,0.9c0.6,2,0.6,4.1,0.6,6.2
				c-0.1,1.8,0,3.5,0,5.3c0,0.7,0.5,1.2,1.3,1.1c0.7-0.1,0.8-0.7,0.7-1.3c-0.2-1.3-0.4-2.5-0.5-3.8c-0.1-2.5-0.8-4.9-0.3-7.4
				c0.2-0.9,0.2-2.3,1.3-2.3c1.2,0,1.2,1.4,1.2,2.3c0.2,3.4,1,6.6,1,10c0,0.4,0,0.8,0.2,1.2c0.2,0.5,0.5,0.8,1.1,0.7
				c0.4-0.1,0.7-0.4,0.8-0.8c0-0.4-0.1-0.8-0.1-1.2c-0.3-3-0.2-6.1-0.7-9.1c-0.2-1.2-0.1-2.4,0.7-3.5c0.3-0.4,0.6-0.8,1.2-0.6
				c0.4,0.1,0.6,0.5,0.7,0.9c0.4,2.1,1,4.2,1,6.4c0,1.9,0,3.8,0.4,5.7c0.1,0.4,0,1,0.7,1.1c0.4-0.3,0.3-0.7,0.3-1.1
				c-0.4-4.1-0.8-8.1-1.2-12.2c-0.1-0.6-0.1-1.1-0.1-1.7c0.1-0.7,0.5-1.2,1.2-1.3c0.7-0.1,1.2,0.3,1.5,0.9c0.4,0.8,0.4,1.7,0.5,2.6
				c0.2,3.7,1.1,7.3,1.1,11c0,1.3,0.6,1.7,1.8,1.5c1.2-0.1,1.1-0.9,1-1.7c-0.3-2.5-0.7-4.9-0.8-7.4
				C582.2,147.9,582,146.2,583.2,144.7z M229,574.8c0,3.8,0,7.7,0,11.5c0,1.8,0.2,1.9,1.9,2c1.3,0,2.6,0,3.8,0
				c1.1,0,1.7-0.4,1.6-1.6c0-0.6,0-1.3,0-1.9c0-4.1,0-8.2,0-12.2c0-0.8-0.2-1.9,0.7-2.1c1.8-0.4,1.8-1.8,2-3.1
				c0.5-2.8,1.8-5.1,4.6-6.3c2.3-1.1,4.8-1.3,7.3-0.6c3.1,0.8,5,2.7,5.9,5.7c0.4,1.2,0.4,2.5,0.4,3.8c0,0.8,0.2,1.4,1,1.6
				c1.1,0.3,1.2,1.2,1.2,2.1c0,1.6,0,3.2,0,4.8c0,2.6,0,5.3,0,7.9c0,1.7,0.3,1.9,2,2c0.9,0,1.8,0,2.6,0c2.3,0,2.4-0.1,2.4-2.5
				c0-7,0-14.1,0-21.1c0-1.7-0.5-2.9-1.7-4c-4.2-4.1-8.2-8.3-12.4-12.4c-1.1-1.1-2.3-2.2-3.4-3.4c-0.8-0.9-1.6-0.9-2.4,0
				c-0.3,0.4-0.7,0.7-1,1c-5.1,4.9-10.3,9.9-15.5,14.7c-1,0.9-1.4,1.8-1.4,3.1C229,567.5,229,571.1,229,574.8z M517.8,170.9
				c-0.2-3.1-0.7-6-2-8.7c-0.6-1.3-1.4-2.3-2.6-3c-2-1.2-4.2-2-6.5-2.4c-1.5-0.2-2.9-0.1-4.1,0.8c-0.6,0.4-1.2,0.7-2,0.8
				c-1.5,0.1-2.7,0.9-3.6,2.1c-0.7,0.8-1.4,1.7-2.2,2.5c-1.8,1.8-2.9,4-3.5,6.5c-0.8,3.3-0.5,7.8,3.4,10.5c4.3,3,9.2,4,14.3,3.8
				c1.3,0,2.3-0.6,3.2-1.4C515.6,179.2,517.4,175.3,517.8,170.9z M285.1,537.7C285.1,537.7,285.1,537.7,285.1,537.7
				c0,9.9,0,19.8,0,29.8c0,0.7,0,1.4,0.1,2.2c0,0.3,0.1,0.7,0.5,0.7c0.5,0.1,0.7-0.3,0.8-0.7c0.5-1.4,0.4-2.8,0.4-4.3
				c-0.1-19.2-0.1-38.4-0.2-57.6c0-0.9-0.1-1.8-0.1-2.6c0-1.8-0.9-2.8-2.7-3.4c-8.4-2.9-16.7-2.3-24.9,0.9c-2,0.8-2.9,1.9-2.9,4.3
				c0.2,9.9,0.3,19.8,0.4,29.7c0,2.3,0,4.6,0,7c0,0.6,0,1.1,0.1,1.7c0.1,0.6,0.2,1.2,0.9,1.2c0.7,0,0.9-0.6,0.9-1.1
				c0.1-1,0.1-2.1,0.1-3.1c0-11.4-0.1-22.7-0.1-34.1c0-3,0.2-3.3,3.1-4.2c4.4-1.5,8.8-2,13.5-1.9c2.6,0.1,5,0.6,7.4,1.6
				c2.1,0.8,2.7,2,2.7,4.2C285,517.7,285.1,527.7,285.1,537.7z M257.1,500c9.5-3.1,18.8-3.8,28.2-0.3c-4.2-4.7-8.4-9.3-12.6-13.8
				c-1-1.1-1.2-1-2.3,0.1c-3.7,3.8-7.5,7.7-11.2,11.5C258.5,498.4,257.8,499.2,257.1,500z M498.8,224.1c0.3-9.5,0.2-18.9-1.5-28.4
				c-1.2,2.1-2.3,4-3,6c-2.1,5.5-2.3,10.9,1.1,16C496.8,219.7,497.8,221.9,498.8,224.1z M209.9,555.5c0-1.2,0-2.4,0-3.6
				c-0.1-2-1.1-3.2-2.9-3.5c-1.5-0.2-2.9,0.7-3.6,2.5c-0.1,0.4-0.3,0.8-0.3,1.2c0,2.5,0,5,0,7.4c0,1,0.5,1.5,1.5,1.5
				c1.3,0,2.6,0,3.8,0c1.1,0,1.6-0.6,1.5-1.7C209.9,558.1,210,556.8,209.9,555.5z M191.5,555.4C191.4,555.4,191.4,555.4,191.5,555.4
				c0,1.3,0,2.5,0,3.8c0,1.1,0.5,1.8,1.7,1.8c1.2,0,2.4,0,3.6,0c1.2,0,1.7-0.6,1.7-1.8c0-1.8,0-3.7,0-5.5c0-1,0-1.9-0.3-2.8
				c-0.6-1.6-2.3-2.8-3.9-2.6c-1.4,0.2-2.6,1.5-2.7,3.2C191.4,552.9,191.5,554.2,191.5,555.4z M334.9,555.6
				C334.9,555.6,334.9,555.6,334.9,555.6c0-1.2,0.1-2.4,0-3.6c-0.1-2.1-1.5-3.5-3.4-3.6c-1.7-0.1-3.1,1.3-3.3,3.4
				c-0.1,2.5,0,4.9-0.1,7.4c0,1.1,0.5,1.8,1.7,1.8c1.1,0,2.2,0,3.3,0c1.1,0,1.6-0.5,1.7-1.6C334.9,558.2,334.9,556.9,334.9,555.6z
				 M322.9,555.6C322.9,555.6,322.9,555.6,322.9,555.6c0-1.3,0-2.5,0-3.8c0-0.9-0.2-1.7-1-2.4c-1-0.8-2-1.3-3.3-0.9
				c-1.4,0.5-2.1,1.5-2.2,2.9c-0.2,1.7-0.2,3.5-0.1,5.2c0.1,4.7-0.9,4.5,4.8,4.4c1.5,0,1.7-0.3,1.8-1.9
				C323,558,322.9,556.8,322.9,555.6z M314.2,515.1C314.1,515.1,314.1,515.1,314.2,515.1c-0.1-1,0-2.1-0.1-3.1
				c-0.2-1.2-1.1-2-2.2-2.1c-1.2-0.1-2,0.3-2.5,1.4c-0.2,0.4-0.5,0.9-0.5,1.3c-0.1,1.8-0.1,3.6-0.1,5.5c0,0.5,0.2,1,0.8,1.1
				c1.3,0.3,2.7,0.5,4-0.1c1.2-0.5,0.6-1.8,0.7-2.8C314.2,515.9,314.2,515.5,314.2,515.1z M211.9,516.6
				C211.9,516.6,211.9,516.6,211.9,516.6c0-1,0-1.9-0.1-2.9c-0.2-1.5-1.1-2.3-2.5-2.4c-1.4-0.1-2.3,0.7-2.5,2.3
				c-0.2,1.6-0.1,3.2-0.1,4.8c0,2.1,0.3,2.2,2.4,2.3c2.5,0,2.7-0.1,2.7-2.7C211.9,517.6,211.9,517.1,211.9,516.6z M321.4,515
				C321.4,515,321.4,515,321.4,515c0-0.7,0-1.4,0-2.2c-0.1-1.9-0.9-2.9-2.4-2.9c-1.5,0-2.5,0.9-2.6,2.8c-0.1,1.6-0.1,3.2,0,4.8
				c0.1,1.5,0.3,1.7,1.9,1.8c0.5,0,1,0,1.4,0c1.2,0,1.8-0.5,1.8-1.7C321.4,516.7,321.4,515.9,321.4,515z M197.2,516.5
				C197.2,516.5,197.1,516.5,197.2,516.5c-0.1-1,0-2.1-0.1-3.1c-0.2-1.4-1.1-2.1-2.5-2.1c-1.3,0-2,0.7-2.4,2.2
				c-0.4,1.5-0.2,3-0.2,4.5c0,2.5,0.2,2.7,2.7,2.6c2.1,0,2.3-0.3,2.4-2.3C197.2,517.8,197.2,517.1,197.2,516.5z M204.7,516.8
				C204.7,516.8,204.7,516.8,204.7,516.8c0-1,0-1.9-0.1-2.9c-0.2-1.7-1.1-2.6-2.6-2.6c-1.5-0.1-2.3,0.8-2.5,2.6
				c-0.1,1.4-0.1,2.9-0.1,4.3c0,2.3,0.2,2.5,2.5,2.5c2.5,0,2.7-0.1,2.7-2.7C204.7,517.6,204.7,517.2,204.7,516.8z M335.9,515.1
				c0,0-0.1,0-0.1,0c0-1.1,0.1-2.3,0-3.3c-0.3-1.7-2.3-2.5-3.7-1.5c-0.7,0.5-1,1.2-1.2,2c-0.3,1.9-0.2,3.8-0.1,5.7
				c0,0.6,0.3,1,1,1.2c2.7,0.9,4.1-0.1,4.2-2.9C335.9,515.9,335.9,515.5,335.9,515.1z M343.1,515C343.1,515,343.1,515,343.1,515
				c0-0.7,0-1.4,0-2.2c0-0.2,0-0.3,0-0.5c-0.2-1.6-0.8-2.3-2.1-2.4c-1.5-0.2-2.3,0.4-2.7,2.1c-0.5,2-0.3,4.1-0.2,6.2
				c0,0.6,0.4,1,1.1,1.1c0.6,0.1,1.3,0.1,1.9,0.1c1.7-0.1,2-0.3,2.1-1.9C343.1,516.6,343.1,515.8,343.1,515z M214.1,516.7
				C214.1,516.7,214,516.7,214.1,516.7c-0.1,0.3-0.1,0.6-0.1,1c0,3.1,0.4,3.4,3.5,3.1c1-0.1,1.7-0.5,1.7-1.6c0-1.8,0.1-3.5,0-5.3
				c-0.1-1.7-1.1-2.6-2.6-2.5c-1.3,0-2.2,0.9-2.5,2.5C214,514.7,214.1,515.7,214.1,516.7z M328.6,515.1
				C328.6,515.1,328.6,515.1,328.6,515.1c0-0.8,0-1.6,0-2.4c-0.1-1.8-0.9-2.7-2.4-2.8c-1.5-0.1-2.6,0.9-2.7,2.7
				c-0.1,1.7,0,3.5,0,5.3c0,0.6,0.2,1.1,0.8,1.3c2.4,1,4.3-0.1,4.3-2.7C328.7,516,328.6,515.6,328.6,515.1z M190,516.5
				C189.9,516.5,189.9,516.5,190,516.5c0-1,0-1.9-0.1-2.9c-0.2-1.5-1.1-2.3-2.5-2.3c-1.3,0-2.1,0.7-2.2,2.3c-0.1,1.7-0.1,3.3,0,5
				c0.1,1.8,0.3,2,2.1,2.1c2.3,0.1,2.6-0.2,2.7-2.5C190,517.6,190,517.1,190,516.5z M273.3,538.6c0-1.3,0-2.5,0-3.8
				c0-0.8-0.3-1.5-1.1-1.6c-1-0.1-1.4,0.7-1.4,1.6c0,2.5,0,5.1,0,7.6c0,0.9,0.5,1.3,1.4,1.2c0.8,0,1.2-0.5,1.2-1.2
				C273.3,541.2,273.3,539.9,273.3,538.6z M273.3,514.5C273.3,514.5,273.3,514.5,273.3,514.5c-0.1-1.4,0-2.7-0.1-4.1
				c0-0.7-0.4-1.3-1.2-1.3c-0.7,0-1.2,0.5-1.3,1.2c-0.1,0.5-0.1,1.1-0.1,1.7c0,1.6,0,3.2,0,4.8c0,0.5,0,1,0.1,1.4
				c0.1,1,0.9,1.3,1.7,1.3c0.9,0,0.9-0.8,0.9-1.4C273.3,516.9,273.3,515.7,273.3,514.5z M262,515.6C262,515.6,262,515.6,262,515.6
				c0,1.2,0,2.4,0,3.6c0,0.5,0,1,0.6,1.1c0.5,0.1,1-0.1,1.3-0.6c0.2-0.3,0.4-0.7,0.4-1.1c0-2.2,0-4.5,0-6.7c0-0.7-0.2-1.4-1-1.4
				c-0.9,0-1.2,0.7-1.3,1.4C262,513.2,262,514.4,262,515.6z M262,539.8c0,1.2,0,2.4,0,3.6c0,0.4,0.1,0.8,0.5,0.9
				c0.4,0.1,0.8-0.1,1.1-0.3c0.5-0.4,0.7-0.9,0.7-1.5c0-2.1,0-4.3,0-6.4c0-0.7-0.2-1.5-1.2-1.4c-0.9,0.1-1.1,0.8-1.1,1.6
				C262,537.4,262,538.6,262,539.8z M281.2,540.4C281.1,540.4,281.1,540.4,281.2,540.4c0-1.3,0-2.5-0.1-3.8c0-0.6-0.3-1.1-1-1.1
				c-0.6,0-1.1,0.4-1.2,1c-0.3,2.4-0.2,4.9,0,7.4c0.1,0.8,0.8,1,1.4,0.9c0.8-0.1,0.8-0.7,0.8-1.3
				C281.2,542.5,281.2,541.5,281.2,540.4z M281.1,516.2C281.1,516.2,281.1,516.2,281.1,516.2c0-1.1,0-2.2,0-3.4c0-0.7-0.2-1.3-1-1.4
				c-0.8,0-1.2,0.5-1.2,1.2c-0.1,2.2-0.1,4.5,0,6.7c0,0.7,0.4,1.2,1.2,1.2c0.8,0,1.1-0.6,1.1-1.3
				C281.2,518.3,281.1,517.2,281.1,516.2z M416.8,567.2c0-1.3-1.1-2.4-2.4-2.5c-1.4-0.1-2.6,1.2-2.5,2.6c0.1,1.3,1.2,2.4,2.5,2.4
				C415.7,569.6,416.8,568.5,416.8,567.2z M455.2,503.3c0-1.3-1.1-2.5-2.4-2.5c-1.3,0-2.5,1.1-2.5,2.4c-0.1,1.4,1.1,2.6,2.5,2.6
				C454.2,505.8,455.2,504.7,455.2,503.3z M538.3,533.7c0-1.4-1.3-2.6-2.6-2.5c-1.2,0.1-2.4,1.3-2.3,2.6c0.1,1.3,1.2,2.4,2.5,2.3
				C537.3,536,538.3,535,538.3,533.7z M526.5,542.4c0.1,1.4,1.1,2.3,2.5,2.3c1.3,0,2.4-1.1,2.4-2.4c0-1.4-1.3-2.6-2.6-2.5
				C527.5,539.9,526.5,541.1,526.5,542.4z M623.2,561.9c-1.2-0.1-2.4,1-2.6,2.3c-0.1,1.3,0.9,2.5,2.2,2.6c1.4,0.1,2.7-1,2.7-2.4
				C625.6,563.1,624.5,561.9,623.2,561.9z M617.9,564.1c0.1-1.3-1-2.5-2.2-2.7c-1.3-0.1-2.7,1.1-2.7,2.4c-0.1,1.3,1,2.4,2.3,2.5
				C616.7,566.4,617.8,565.4,617.9,564.1z M605,502c0-1.3-1.2-2.4-2.4-2.5c-1.3,0-2.6,1.3-2.5,2.6c0.1,1.3,1.2,2.3,2.5,2.3
				C603.9,504.4,605,503.2,605,502z M405.9,549.8c-1.3,0-2.5,1.1-2.5,2.4c0,1.3,1.1,2.5,2.4,2.6c1.3,0,2.5-1.1,2.5-2.4
				C408.3,550.9,407.2,549.8,405.9,549.8z M406.1,562c1.3,0,2.5-1.2,2.4-2.5c0-1.3-1.2-2.4-2.5-2.4c-1.3,0-2.4,1.2-2.4,2.5
				C403.7,561,404.7,562,406.1,562z M594.7,499.8c-1.3,0-2.4,1.2-2.4,2.5c0.1,1.3,1.2,2.4,2.6,2.3c1.3,0,2.4-1.2,2.4-2.5
				C597.2,500.8,596.1,499.8,594.7,499.8z M538.4,542.3c0-1.5-0.9-2.5-2.2-2.5c-1.3,0-2.4,1.1-2.4,2.4c0,1.4,1,2.4,2.3,2.5
				C537.5,544.8,538.4,543.8,538.4,542.3z M606.3,558.7c1.5,0,2.5-0.9,2.5-2.3c0.1-1.4-1-2.4-2.4-2.4c-1.3,0-2.5,1-2.6,2.3
				C603.8,557.6,604.9,558.7,606.3,558.7z M400.2,551.8c0-1.4-1-2.4-2.3-2.4c-1.3,0-2.4,1.1-2.4,2.4c0,1.3,1.1,2.5,2.4,2.5
				C399.2,554.2,400.2,553.2,400.2,551.8z M450.6,511.7c0,1.4,0.9,2.3,2.2,2.3c1.5,0,2.6-1.1,2.5-2.6c-0.1-1.3-1.2-2.4-2.5-2.4
				C451.5,509.1,450.6,510.2,450.6,511.7z M607.1,561.7c-1.4,0-2.4,0.9-2.4,2.4c0,1.3,1.1,2.5,2.3,2.5c1.3,0,2.3-1.1,2.4-2.5
				C609.5,562.7,608.5,561.7,607.1,561.7z M414,557.4c-1.4,0-2.3,1-2.3,2.5c0.1,1.3,1,2.2,2.3,2.2c1.5,0,2.4-0.9,2.4-2.4
				C416.4,558.2,415.5,557.3,414,557.4z M163.9,560.3c0-1.3-1-2.3-2.2-2.3c-1.2,0-2.3,1.1-2.3,2.3c0,1.3,1,2.2,2.3,2.2
				C163,562.5,163.9,561.6,163.9,560.3z M122.3,549.1c1.4,0,2.3-0.9,2.2-2.2c0-1.2-1.1-2.3-2.3-2.3c-1.2,0-2.2,1.1-2.2,2.4
				C120,548.2,120.9,549.1,122.3,549.1z M125,554.4c0.1-1.3-0.8-2.2-2.2-2.2c-1.3,0-2.3,0.9-2.3,2.2c0,1.2,1,2.3,2.2,2.3
				C123.9,556.7,125,555.6,125,554.4z M154.1,562.5c1.3,0,2.2-0.9,2.2-2.3c0-1.2-0.9-2.2-2-2.2c-1.2-0.1-2.4,1-2.4,2.2
				C151.8,561.4,152.9,562.5,154.1,562.5z M123.6,559.8c-1.2-0.1-2.1,0.7-2.2,2c-0.1,1.4,0.7,2.4,2,2.5c1.1,0.1,2.1-0.9,2.2-2
				C125.7,560.9,124.9,559.9,123.6,559.8z M489.2,214.2c0.1-1.3,0-2.3-1-2.7c-1.5-0.5-2.7-1.4-3.9-2.2c-0.3-0.2-0.7-0.5-1-0.1
				c-0.4,0.4-0.4,1,0.1,1.3C485.2,211.7,486.9,213.3,489.2,214.2z M488.9,208.9c-0.9-2-2.6-2.2-3.8-3c-0.1,0-0.3,0.1-0.4,0.1
				c-0.2,0.2-0.2,0.5,0,0.6C485.9,207.5,487.1,208.4,488.9,208.9z M377.5,42.3c0.5,0.1,1.6-1.2,1.7-1.8c0.1-0.4-0.1-0.6-0.5-0.7
				c-0.6-0.2-2.1,0.7-2.1,1.2C376.7,41.5,376.9,42,377.5,42.3z"/>
			<path d="M370.9,708c-1.5-0.6-3-0.4-4.5-0.4c-5.8,0.1-11.7-0.1-17.5-0.5c-9.2-0.7-18.4-1.9-27.6-3.5c-5.4-0.9-10.7-2-16-3.2
				c-0.9-0.2-1.9-0.2-2.5-0.9c0.3-0.7,0.9-0.6,1.3-0.6c7.1-0.1,14.2-0.5,21.3,0.3c0.2,0,0.5,0.1,0.7,0c8.2-0.5,16.4,0.3,24.6,0.2
				c8.2-0.1,16.3,0,24.5-0.2c3.8-0.1,7.6-0.5,11.5-0.6c3.7-0.1,7.3-0.2,11-0.3c6.3-0.2,12.6-0.3,18.9-0.6c3.3-0.2,6.6-0.8,10-1
				c5.4-0.4,10.7-0.3,16.1-0.2c4.3,0,8.6,0,13.1-0.2c-0.7,0.9-1.6,1-2.4,1.2c-11.9,3.2-23.9,5.8-36.1,7.5
				c-8.7,1.2-17.4,2.1-26.2,2.6c-4.8,0.3-9.6,0.1-14.4,0.1c-1.1,0-2.2-0.1-3.3,0.4C372.5,708,371.7,708,370.9,708z"/>
			<path d="M250.3,404c-3.3,3.7-7.1,6.8-10,10.8c-1.7,2.3-4.4,3.6-7.3,4.3c-0.4,0.1-1,0-1.4-0.1c-4-1.4-7.6-3.3-9.9-7.2
				c-0.2-0.3-0.4-0.7-0.7-1c-0.4-0.5-0.8-0.4-1.2,0c-3.6,3.9-8,4.2-12.7,2.8c-2.1-0.6-1.9-0.5-3.5,1.1c-1.9,2-4.4,3.4-7.2,3.5
				c-8,0.4-14.9-2.3-20.6-7.9c-0.9-0.8-1.3-2-1.6-3.2c-0.2-0.6-0.4-1.3-1.1-1.4c-0.8-0.2-1.1,0.6-1.3,1.1c-1.2,2.5-3.4,4.2-5.1,6.3
				c-1.2,1.4-3,1.8-4.7,2.1c-2.1,0.3-4,1-6,1.6c-4.9,1.5-9.8,2.2-14.8,0c-2.3-1-4.9-1.4-7.2-2.7c-2.1-1.2-3.7-3-5.4-4.7
				c-0.2-0.2-0.4-0.5-0.4-0.8c-0.2-0.7-0.5-1.5,0.3-2c0.7-0.5,1.2,0.2,1.6,0.7c0.7,0.9,1.6,1.5,2.8,1.7c0.6,0.1,1.3,0.3,1.8,0.7
				c2.1,1.6,4.2,1,6.3-0.1c7.6-3.9,8-12.1,2.7-17.3c-1.6-1.6-3.3-3-5.4-3.9c-3.5-1.5-6.4-3.6-8.7-6.6c-1-1.4-1.2-1.3-2.2,0.1
				c-2.6,3.6-5.5,6.9-8.7,9.9c-2,1.9-4,3.6-6.9,4c-1,0.1-1.7,0.8-1.9,1.9c-0.8,4.2-2.6,7.9-5,11.3c-1.7,2.4-3.6,4.8-7,4.9
				c-0.5,0-0.9,0.3-1.4,0.5c-5.5,2-10.8,1-15.6-2.1c-2.1-1.3-4.5-2.4-6.1-4.5c-1-1.3-2.2-2.4-2.7-3.9c-1.3-3.8-3.5-7.2-4.2-11.2
				c-0.3-1.9-0.6-3.8-0.1-5.8c-1.1,0.1-1.6,0.7-2.1,1.3c-2.8,3-6.1,5.4-9.4,7.7c-1.5,1-3.3,1.6-5.1,2c-1.3,0.3-2,0.9-1.9,2.3
				c0.2,3,0.1,5.9,0.4,8.9c0.4,3.9,0.2,7.8-0.4,11.7c-0.2,1.4,0,2.7-0.2,4c-0.6,5.4-1.7,10.8-3.6,15.9c-1.5,4.2-3.7,8.3-7.1,11.5
				c-0.6,0.6-1,1.3-1.5,1.9c-0.9,1-1.7,2.1-3.3,2.2c-0.9,0-1.5,0.8-2.2,1.4c-1.9,1.6-3.7,3.4-6.5,3.9c-3.6,0.6-6.8-0.6-8.5-3.9
				c-2.1-3.8-2.7-7.8-2.2-12c0.6-4.6,1.8-9.1,3.3-13.5c1.7-5,3.3-10.3,7.3-14.2c0.4-0.4,0.7-1.1,1-1.6c1.3-2.1,2.6-4.2,4.5-5.9
				c1.5-1.3,2.1-2.9,2-4.9c-0.3-7.7-0.5-15.5-0.6-23.2c-0.1-4,0.2-8,0.3-12c0-0.4,0.2-0.8,0.1-1.2c-0.7-2.7,0.4-5.2,0.7-7.8
				c0-0.4,0.2-0.8,0.2-1.2c-0.2-5.1,1.7-9.9,2.7-14.8c0.4-2,1.9-3.8,2.9-5.7c0.1-0.2,0.4-0.4,0.4-0.6c1.2-3.7,4.4-5.7,7-8.2
				c1.1-1.1,2.7-1.4,4.1-1.8c1-0.3,2.1-0.1,3-0.7c0.4-0.3,0.9-0.1,1.4,0.1c2.9,1.1,5.4,2.8,7.8,4.6c1.7,1.2,2.3,3.3,2.6,5.3
				c0.3,2.5,0.2,4.9-0.4,7.4c-1,3.6-1.7,7.3-2.7,10.9c-0.6,2.3-1.5,4.5-2.4,6.8c-1.4,3.7-2.8,7.3-3.9,11.1c-0.9,3.3-2.6,6.4-4.2,9.4
				c-0.8,1.6-1.5,3.2-2.2,4.8c-0.6,1.5-0.5,3-0.4,4.5c0.1,1,0.7,1.2,1.5,1c0.5-0.1,1.1-0.4,1.5-0.7c5.2-3.6,10.2-7.4,14.7-11.9
				c0.9-0.9,1.6-2,2-3.2c0.5-1.6,1.4-2.8,2.6-3.9c2.1-2.1,4.4-3.9,6.7-5.8c3.1-2.6,6.7-3.2,10.3-2.3c2.7,0.7,4.8,2.8,5.7,5.7
				c0.5,1.6,0.9,1.8,2.3,0.9c2.7-1.9,5.4-1.1,7.8,0.3c3.6,2.1,5.3,5.7,6.3,9.6c0.6,2.4,0.4,4.9,0.4,7.4c0,2,0.4,2.2,2.1,1.2
				c0.3-0.2,0.7-0.4,1-0.6c5.2-4,9.5-8.7,12.8-14.4c0.5-0.9,0.9-1.9,0.6-3c-0.5-1.7,0.1-3,1.1-4.2c2.2-2.8,5-4.7,8.4-6
				c4-1.5,7.5-0.8,11.1,1c2.7,1.3,3.4,4.6,1.6,6.9c-1.5,1.9-2.6,4.2-4.8,5.6c-1.2,0.8-1.2,1.5-0.6,2.9c0.6,1.4,1.8,2.4,3,3.4
				c2.7,2.3,5.8,4.3,8.2,6.9c3.4,3.7,4.7,8,4.3,13c-0.1,1.3-0.1,2.7-0.4,4.1c-0.4,1.8-0.7,3.6-1.8,5.2c-0.2,0.3-0.3,0.6-0.1,0.9
				c0.3,0.4,0.7,0.3,1.1,0.2c3.7-1.5,7.4-2.9,9.8-6.5c1.2-1.8,2.6-3.6,4-5.4c0.4-0.6,0.9-1.2,1.8-0.9c0.8,0.3,0.7,1,0.7,1.6
				c0,1.1,0.4,2,1,2.9c1.7,2.3,3.8,4.1,6.3,5.4c1.5,0.7,3.1,1.3,4.7,1.9c1.8,0.6,2.5,0.4,3.7-1.2c0.5-0.6,1-1.3,1.5-1.8
				c1.2-1.1,1.6-2.6,1.7-4.1c0.5-5.3-1.1-9.8-4.9-13.5c-2.4-2.4-5-4.8-7.6-6.9c-2.8-2.3-4.4-5.2-5.1-8.7c-0.6-3.3,1.6-7.9,4.5-9.7
				c3.5-2.2,7.2-2.9,11.2-2c1.3,0.3,2.7,0.2,4,0.5c1.7,0.4,3.1,1.2,4.2,2.6c0.7,1,1.5,1.9,2.1,2.9c1.2,1.8,1.1,3.8-0.2,5.5
				c-1.4,1.8-2.5,2.1-4.8,1.2c-0.9-0.3-1.6-0.5-2.5,0c-1.8,1-2.1,1.7-1.4,3.7c1,3.1,2.8,5.5,5.1,7.6c3.5,3.1,6,7,7.9,11.3
				c1.3,2.8,1.5,5.7,0.8,8.6c-0.4,1.8,0,2.3,1.9,2.2c4.7-0.3,8.1-2.6,10.2-6.9c0.5-1.1,0.5-2.2,0.5-3.3c-0.1-7.2,0.6-14.4,1.9-21.5
				c0.3-1.8,0.8-3.6,1.6-5.3c1.3-2.9,3-3.8,6.1-3.3c0.2,0,0.3,0.1,0.5,0.1c4,0.3,5.6,1.9,5.6,6.8c0,4.3-0.7,8.6-1.9,12.7
				c-1.8,5.8-1.8,11.6-0.7,17.5c0,0.2,0.1,0.5,0.2,0.7c1,3.2,2,3.5,4.5,1.4c2.8-2.4,5.4-5,8-7.6c1.6-1.7,2.9-3.6,4-5.7
				c0.4-0.7,0.5-1.5,0.6-2.3c0.7-8.3,1.9-16.5,2.5-24.8c0.3-3.7,1.2-7.3,1.4-10.9c0.2-4.7,1.5-9.3,1.9-14c0.2-2.4,0.8-4.7,1.5-7
				c0.9-3,3-5.1,5.4-6.8c2.6-1.8,6.7-1.5,9.5,1.7c1.6,1.9,2.3,4,1.9,6.5c-0.3,1.7-0.5,3.3-0.8,5c-1,5.7-1.6,11.4-2.3,17.1
				c-0.7,6-1.9,12-3.1,17.9c-0.9,4.5-1.9,8.9-2.5,13.4c-0.5,3.9-0.6,7.8,0.1,11.7c0.5,2.8,1.8,3.4,4.5,2.2c4-1.9,7.1-4.8,9.7-8.3
				c0.9-1.2,1.6-2.4,2.4-3.6c0.3-0.5,0.7-0.9,1.1-1.3c0.5-0.4,1.1-0.9,1.7-0.4c0.5,0.4,0.2,1.1-0.1,1.5c-0.8,1.6-1.9,3-1.2,4.9
				c0.1,0.4-0.4,0.9-0.7,1.2c-1.2,1.2-2.3,2.3-3.8,3.2c-2.6,1.6-5,3.5-6.9,5.8c-1.9,2.2-4.3,3.8-6.9,4.6c-3.1,1-6.6,1.3-9.3-1.6
				c-1.8-2-3.8-3.9-4.5-6.7C251.2,405.2,251,404.7,250.3,404z M91.9,381c-0.2-0.1-0.4-0.2-0.6-0.4c-1.3,2.3-3.3,3.8-4.9,5.8
				c-1.6,2-2.3,4.3-3.4,6.5c-2.4,4.8-1.5,9.5-0.1,14.2c0.2,0.6,0.5,1.1,1,1.6c1.9,1.9,5.9,3.3,8.9,1.9c3.2-1.4,6.1-3.1,7.9-6.3
				c1.1-1.9,2.3-3.9,3-6c0.6-1.8,0.3-2.4-1.4-3.2c-0.9-0.5-1.9-0.9-2.8-1.3c-4.8-2.3-7.6-5.9-7.5-11.5
				C91.9,381.9,91.9,381.5,91.9,381z M32.1,412.9c-3.2,3.2-5.2,6.9-7.4,10.5c-0.8,1.3-1.9,2.7-1.9,4.3c0,1-0.2,1.9-0.5,2.8
				c-1.3,4-2.6,8.1-3.3,12.2c-0.4,2.4-1,4.9-0.5,7.3c0.6,2.8,3.7,4.3,5.9,2.5c2.8-2.2,5.5-4.6,6.6-8.3c1.9-6.5,2.1-13,1.9-19.7
				c-0.1-3.1-0.6-6.2-0.2-9.3C32.7,414.6,32.6,413.9,32.1,412.9z M48.8,372.5c0.2,0,0.3,0,0.5,0.1c0.1-0.3,0.3-0.6,0.4-0.8
				c2.4-6.5,5-12.9,6.4-19.7c0.8-3.7,1.8-7.4,2.1-11.3c0.1-1.1,0.2-2.2-0.1-3.3c-0.1-0.6-0.5-1-1.1-1.1c-0.6-0.1-0.9,0.3-1.1,0.8
				c-0.9,1.7-2.5,3.1-2.4,5.3c0,0.6-0.5,1.2-0.8,1.7c-0.4,0.8-0.7,1.6-0.8,2.5c-0.4,3.8-1.4,7.5-2.3,11.2
				C48.5,362.7,49,367.6,48.8,372.5z M105.4,386.6c0.1-1.8-0.1-3.6-0.5-5.3c-0.7-2.5-1.5-4.9-4.1-6.1c-2.1-1-3.8-0.6-4.8,1.5
				c-0.8,1.7-1.4,3.5-1.4,5.5c-0.1,2.1,0.6,3.9,1.9,5.5c1.9,2.3,4.5,3.5,7.2,4.6c0.7,0.3,1.1,0,1.2-0.7
				C105.2,389.9,105.5,388.2,105.4,386.6z"/>
			<path d="M490.6,396.5c-1.4,1.9-1.5,4-2.2,5.9c-0.7,2.1-2.4,3.6-3.8,5.1c-2.3,2.5-4.7,5-7.1,7.5c-1.2,1.3-2.9,2.2-4.5,3.1
				c-1.4,0.8-2.9,1.3-4.4,1.8c-1.2,0.4-2.6,0.4-3.8,0c-2.6-0.9-5.3-1.1-7.8-2.1c-0.5-0.2-1.1-0.3-1.6-0.6c-3.9-2.5-7.2-5.6-8.3-10.4
				c-0.2-0.8-0.4-1.5-0.7-2.3c-0.1-0.3-0.2-0.6-0.8-0.7c-2.1,2.7-4.6,5.1-7.1,7.5c-3.2,3-6.9,5.5-10.6,7.8c-2.8,1.7-6.1,1.6-9.3,1.5
				c-3.3-0.1-6.4-1.3-9.4-2.6c-2.4-1-4-3.1-5.3-5.3c-1.8-3.1-2.2-6.4-2-9.9c0-0.5,0.1-1-0.5-1.3c-0.2,0.1-0.5,0.2-0.5,0.3
				c-1.3,2.5-3.5,4.6-4.4,7.4c-0.2,0.5-0.5,1-0.8,1.4c-4.2,5.7-8.9,10.9-15,14.7c-2.2,1.4-4.5,1.6-7.1,0.8c-3.7-1.2-5.9-3.6-7.1-7.1
				c-0.9-2.4-1.4-4.7-1.4-7.3c0.1-2.9-0.1-5.7,0.3-8.6c0.5-3.1,1.6-6,2.6-8.9c0.2-0.4,0.4-0.9,0.6-1.3c0.9-2.3,0.9-2.3-1.1-3.8
				c-0.8-0.6-1.5-1.2-2-2c-1.6-2.2-3.3-4.3-4.8-6.6c-0.7-1-1-1.3-2.2-0.8c-3,1.3-5.7,2.9-8.5,4.4c-2.3,1.3-4.6,2.2-7,2.9
				c-1.8,0.5-3.1,2-4.8,2.6c-0.6,0.2-0.7,1-0.7,1.7c0,4.6-0.2,9.3,0.2,13.9c0.4,5.1,0.2,10.2-0.4,15.3c-0.4,3.1-0.5,6.2-1.1,9.3
				c-1,5.3-3.1,10.2-6.1,14.7c-0.9,1.4-2,2.7-2.9,4.1c-0.6,0.9-1.3,1.6-2.3,2.1c-0.6,0.3-1.2,0.8-1.7,1.3c-2.7,2.9-6.3,4-10.1,4.6
				c-2.7,0.4-4.8-0.8-6.3-3c-2.7-3.9-3.5-8.2-2.9-12.8c0.6-4.8,1.4-9.5,2.5-14.2c1.8-7.5,4.5-14.6,9.2-20.9c2.2-3,4.2-6.2,7-8.7
				c1-0.9,0.9-2,0.9-3.1c0.1-3.4-0.6-6.8-0.7-10.3c-0.2-4.4-0.4-8.8,0-13.2c0.3-2.9,0.2-5.7,0.6-8.6c1.2-8.5,3.1-16.8,8.1-24
				c2.3-3.3,4.6-6.5,7.8-8.9c5.7-4.2,11.1-2.3,15.3,2.3c0.7,0.7,0.7,1.6,0.7,2.5c0.3,5.5-0.5,10.8-2.7,15.9
				c-1.4,3.2-2.7,6.5-4.3,9.6c-2,3.8-4.4,7.2-7.5,10.1c-1.8,1.7-3,3.8-3.4,6.4c-0.4,2.9-0.2,5.7-0.2,8.6c0,1.3,0.3,1.4,1.4,1
				c3.5-1.3,7-2.6,10.3-4.4c2.6-1.5,5.2-2.9,7.7-4.4c1.3-0.8,1.7-1.9,1.4-3.6c-0.6-3.7-1.2-7.5,1-11c1.9-3.1,4.2-5.7,8.3-5.4
				c1.3,0.1,2.4,0.3,3.3,1.3c0.1,0.1,0.1,0.1,0.2,0.2c4.6,4,4.3,6.8,0.7,11.2c-0.9,1.1-2,2.1-3,3.1c-0.8,0.8-1,1.5-0.4,2.6
				c0.6,1.2,1.1,2.5,1.6,3.7c0.3,0.8,0.9,1.2,1.8,1.2c3.1-0.2,6.2-0.3,8.8-2.5c2.2-1.8,4.8-2.1,7.5-1c1.6,0.7,3.5,0.9,4.3,2.8
				c0.9,2.4,1.1,4.8,0.5,7.3c-0.7,2.7-2.1,5-3.6,7.3c-2.7,4.4-5.4,8.7-8.2,13c-1.9,2.9-2.1,6.2-1.8,9.5c0.1,1.7,1.1,2.2,2.7,1.8
				c1.4-0.4,2.5-1.4,3.5-2.4c4-4.3,7.9-8.6,11.3-13.4c2-2.9,3.7-6,5.7-8.9c0.8-1.2,1.7-2.3,1.2-3.9c-0.2-0.5,0.1-1.2,0.4-1.6
				c2.7-3,4.2-6.8,7-9.7c2-2.1,4.1-3.5,7.1-4c4.2-0.7,7.9,0.1,11.4,2.3c0.9,0.6,1.6,1.3,1.9,2.4c0.3,1.4,0.9,2.5,1.8,3.6
				c2.7,3.3,2.1,11.4-3.1,14c-0.4,0.2-0.8,0.5-1.1,0.9c-3.2,2.9-6.8,5-11.1,5.7c-1.3,0.2-2,0.8-2.4,2c-1.2,3.3-0.3,7.4,2.1,9.5
				c2.9,2.5,6.6,2.7,10,0.9c7.4-4.1,13-9.9,17.5-17c0.6-0.9,1-1.8,1.1-2.9c0.4-6.2,3.3-11.3,7.9-15.3c2.4-2,4.6-4.2,7.6-5.4
				c3.9-1.6,12-1.2,15.6,3.1c0.9,1.1,1.6,2.2,1.7,3.6c0.1,1.3,0.1,2.6,0.2,3.8c0.2,3.2-1.3,5.6-3.3,7.9c-1.6,1.9-3.1,3.6-5.5,4.4
				c-0.9,0.3-1.7,1.1-2.5,1.8c-1.3,1.1-2.5,2.2-4.2,2.7c-1.3,0.4-1.7,1.3-1.6,2.6c0.2,2.7,1.2,5.1,3.1,7.1c2.4,2.5,7.1,2.8,9.8,0.2
				c3.6-3.4,7.4-6.6,10.4-10.6c1.2-1.6,2.6-3,4-4.5C489.2,396.5,489.6,396.2,490.6,396.5z M323.1,400.4c-0.3,0.1-0.4,0.2-0.5,0.3
				c-0.4,0.5-0.9,0.9-1.3,1.4c-6,6.9-10,14.8-11.6,23.8c-1,5.2-1.5,10.4-2.2,15.6c-0.2,1.5,0.1,3,0.7,4.4c0.7,1.7,1.9,3,3.8,3.2
				c2,0.1,3.1-1.1,4-2.8c4.4-8.6,6.6-17.7,7.5-27.3c0.2-2.2-0.1-4.5,0-6.7c0.2-3.4,0.2-6.7,0.2-10.1
				C323.7,401.7,323.8,401,323.1,400.4z M338.7,363.6c0.1,0,0.3,0,0.4-0.1c0.2-0.2,0.4-0.5,0.6-0.7c2.7-3.3,4.6-7.1,6.3-11
				c1.2-2.8,2.4-5.6,3-8.6c0.4-2.3,1.1-4.6,0.5-7.1C345.2,339.2,337.8,358.1,338.7,363.6z M462.1,398.6c2.8-1.4,5.2-3.2,7.6-5.1
				c3.7-3,4.8-7,4.3-11.6c-0.1-0.7-0.2-1.5-1-1.8c-0.9-0.2-1.5,0.4-2.1,0.9c-0.3,0.3-0.5,0.8-0.7,1.2c-0.7,1.2-1.3,2.4-2.1,3.5
				c-2.2,3.1-4.2,6.4-5.5,10C462.1,396.6,461.5,397.4,462.1,398.6z M418.4,399c1.2-0.1,2.1-0.7,3-1.4c2.4-2,4.7-4.1,6.3-6.8
				c1.1-1.8,1.2-3.9,0.9-6c-0.1-0.4-0.2-0.8-0.7-0.9C427.1,384.8,418.7,398,418.4,399z M369.9,362.5c0-0.3,0-0.6-0.1-0.8
				c-0.1-1.1-0.4-2.1-1.6-2.4c-1.2-0.3-1.9,0.3-2.5,1.3c-1.1,1.7-1.2,5.5-0.2,7.1c0.4,0.6,0.8,0.7,1.4,0.2
				C368.6,366.4,369.8,364.7,369.9,362.5z"/>
			<path d="M673.9,406.9c-0.9,1.2-1.6,1.8-2.4,2.5c-0.6,0.5-1.3,1.1-1.6,1.8c-0.7,2.2-2.4,3.5-4,5c-1.9,1.9-3.5,4.2-5.8,5.7
				c-3,2-6.2,2.5-9.6,1.6c-1.8-0.5-3.2-1.5-4-3.2c-2-3.9-4.3-7.7-5.3-12c-0.1-0.4-0.1-1-0.6-1.2c-0.7-0.2-1,0.5-1.2,0.9
				c-2.1,3.3-4.9,5.9-8,8.2c-2.3,1.6-4.8,3.2-7.7,3.6c-1.9,0.3-3.6,0-5.2-1.3c-1.9-1.5-4.1-2.8-5.3-5.1c-0.5-0.9-1.1-0.8-1.8-0.2
				c-0.1,0.1-0.1,0.1-0.2,0.2c-3.2,3.5-7.5,5.4-11.3,8c-1.2,0.8-2.4,1.6-3.6,2.4c-2.1,1.3-4.5,2.1-7,2.3c-2,0.1-3.5-0.6-4.3-2.4
				c-1.3-2.7-2.1-5.5-1.5-8.6c0.5-2.5,1-5,1.8-7.4c0.2-0.6,0.4-1.2,0.4-1.9c0-5.6,1-11.2,1-16.7c0-4.3,0.1-8.6-0.3-12.9
				c-0.1-1.4-0.4-2.5-1.9-3c-1.7-0.5-3.3-1.4-4.9,0.1c-2.3,2.2-4.8,4.2-6.6,7c-0.8,1.3-0.9,2.5-0.8,3.9c0.4,3.7,0.8,7.5,0.8,11.2
				c0,1.5-0.2,3-0.5,4.5c-0.4,1.9-1.6,3.1-2.9,3.1c-1.4,0-2.8-1.3-3.2-3.1c-0.3-1.2-0.4-2.4-0.4-3.6c0-4.3,0-8.6,0-13
				c0.1-3.8-0.4-7.6-0.5-11.9c-1.6,1.4-2.9,2.4-4.2,3.6c-1.8,1.6-3.5,3.3-5.3,4.8c-2.3,1.9-3.7,4.5-5.6,6.7
				c-1.5,1.7-1.7,4.1-1.9,6.3c-0.2,3-0.1,6.1-0.4,9.1c-0.4,4.1-1.1,8.2-2.7,12.1c-0.5,1.3-1.5,2.2-2.7,2.9c-1.2,0.7-2.2,1.5-3,2.6
				c-1.3,1.8-3.2,3.1-5.1,4.3c-0.3,0.2-0.7,0.3-1.1,0.4c-1.8,0.5-2.4,0-2.1-1.9c1.2-7.8,2.4-15.6,3.7-23.4
				c0.8-5.1,1.1-10.3,1.2-15.5c0.1-5.2,0.1-10.4-0.2-15.6c-0.1-2.3,0-4.6-0.8-6.8c0-0.1,0-0.3-0.1-0.5c-0.2-3.2,0.5-3.9,3.6-3.5
				c1.3,0.2,2.5,0.5,3.6,1.2c0.7,0.5,1.6,0.8,2.4,1c4.1,0.9,5.9,2.6,6.6,6.8c0.6,3.4,0.6,6.8-0.3,10.2c-0.1,0.4-0.3,0.8,0,1.3
				c0.8,0.1,1.2-0.5,1.7-1c3.1-3,6.7-5.4,9.9-8.3c3.6-3.4,6.4-1.6,8,1.7c1,2.1,0.8,4.4,1.4,6.5c0.8,0.3,1-0.4,1.3-0.8
				c1.7-1.9,3.7-3.5,5.7-5.1c3.2-2.4,6.9-3.3,10.8-3.6c1.2-0.1,2.4-0.1,3.6-0.2c1.9-0.2,3.3,0.5,4.1,2.2c2.3,4.5,3.8,9.2,3.6,14.4
				c-0.3,6.7-1,13.4-1.3,20.1c-0.1,1.9-0.1,3.8,0,5.8c0,1.3,0.7,1.8,1.9,1.4c3.1-1.1,6-2.6,8.6-4.6c0.6-0.4,0.8-1,0.7-1.7
				c-0.1-1.7,0.3-3.3,1.1-4.8c0.7-1.4,1.1-3,1.5-4.6c1.3-4.8,3.3-9.4,5.9-13.6c2.5-4,5.9-7.2,10.2-9.1c3.9-1.8,10.9,0.4,13.1,4
				c0.3,0.5,0.5,1,0.7,1.5c0.6,2-0.6,3.6-2.7,3.4c-2-0.2-4-0.8-5.4-2.4c-2.3-2.7-4.8-2.1-7.1,0c-1.3,1.2-2.4,2.5-3.3,4.1
				c-1.4,2.7-2.9,5.4-4.2,8.1c-2.6,5.4-4,11.1-4.3,17.1c0,0.6,0,1.1,0,1.7c0.4,2.9,1.6,4.1,4.5,4.4c2.2,0.2,4.3-0.3,6.3-1
				c4.8-1.7,7.7-5.4,10.7-9.3c1.9-2.5,2.4-5.2,2.8-8.2c0.8-5.8,1.9-11.7,4.9-16.9c0.7-1.3,1.6-2.4,2.7-3.3c2.1-1.7,4.3-1.9,6.7-0.8
				c1.6,0.7,2.6,1.9,3,3.5c0.4,1.7,0.6,3.5,0.2,5.2c-0.8,3.3-0.9,6.8-2.2,10.1c-0.4,0.9-0.3,1.9-0.3,2.8c0,2.7-0.5,5.3-1.3,7.8
				c-1.1,3.2-1,6.6-1,10c0,1.6,0.8,2.9,1.7,4.2c1,1.2,1.6,1.3,2.8,0.4c4.6-3.6,9-7.4,12.6-12.1c0.2-0.3,0.4-0.7,0.7-0.9
				c2.1-1.9,2.4-4.4,2.7-7.1c0.8-6.6,3-12.7,7.1-18.1c2.7-3.6,5.8-6.6,9.4-9.1c1.1-0.8,2.3-1.4,3.6-1.9c4.3-1.7,8.2-0.1,10.1,4.1
				c0.5,1.2,0.9,2.6,1.4,3.8c0.3,0.8,0.2,1.6,0,2.4c-0.2,0.9-0.5,1.7-1.6,1.8c-0.9,0.1-2.3-0.9-2.6-1.7c-0.2-0.7-0.1-1.6-1-2.3
				c-1.7,2.9-3.8,5.4-5.7,8.2c-2.5,3.7-4.2,7.9-6.5,11.7c-2,3.4-3.4,7-4.3,10.9c-0.4,1.6-0.4,3.2-0.3,4.8c0.2,2.6,2,4.5,4.7,4.6
				c3.3,0.2,6.4-0.2,9.4-2c5.8-3.5,10-8.3,13.4-14c1.2-2.1,2.3-4.2,3.6-6.3c0.3-0.4,0.5-1.2,1.2-1c0.7,0.3,0.3,1,0,1.5
				c-1,2-1.9,4.1-2.9,6c-2.1,4.1-4.3,8.2-7.5,11.6c-2.7,2.8-5.6,5.5-9.3,7c-2.8,1.2-5.8,1.1-8.7,1.1c-0.7,0-1.4-0.4-2-0.7
				c-1.8-1-3.6-2.1-5.5-3c-1.7-0.8-2.7-2.3-3.4-3.9C675.9,411.6,675,409.4,673.9,406.9z"/>
			<path d="M397.6,106.5c-1.1,0.4-2.1,0.2-3.1,0.1c-9.6-0.8-19.3-1.1-29-0.8c-24.6,0.8-48.9,4.2-72.6,11
				c-15.8,4.5-31.1,10.2-46,17.2c-18.9,8.9-36.6,19.7-53.2,32.3c-13.3,10.1-25.7,21.3-37.2,33.6c-21.2,22.7-38.5,48.2-51.8,76.3
				c-10.1,21.4-17.5,43.6-22.2,66.8c-0.1,0.5-0.3,0.9-0.3,1.4c-0.1,1.5-0.8,2.3-2.3,2.7c-1.9,0.6-3.7,1.4-5.6,2.1
				c-1.2,0.4-1.5,0.3-1.3-0.9c0.2-1.3,0.5-2.7,0.7-4c4.9-24.8,12.7-48.7,23.5-71.6c12.4-26.3,28.2-50.3,47.5-72.1
				c23.1-26,49.8-47.6,80.2-64.5c23.9-13.3,49.1-23.2,75.7-29.8c12.1-3,24.4-5.2,36.8-6.6c5.4-0.6,10.8-1.1,16.2-1.5
				c7.6-0.4,15.2-0.9,22.8-0.8c4.2,0.1,8.3,0.3,12.5,0.4c1.2,0,2.2,0.4,2.9,1.4c1.7,2.3,3.8,4.1,5.6,6.2
				C397.5,105.7,397.7,105.9,397.6,106.5z"/>
			<path d="M148.8,609c2.9-0.3,5.5,0.5,8.1,0.7c5,0.4,10,0.8,15,1.3c1.9,0.2,3.8,0.4,5.7,0.6c9.4,0.7,18.8,1.5,28.2,2.2
				c13.8,1.1,27.6,1.2,41.4,1.1c4.3-0.1,8.6,0.3,12.9,0.3c5.7-0.1,11.3,0.3,17,0c2.4-0.1,4.9,0.2,7.4,0.1c8.5-0.2,16.9-0.2,25.4-0.4
				c3-0.1,5.9-0.4,8.9-0.4c6.4,0,12.8,0.1,19.1-0.2c4.4-0.2,8.8-0.4,13.2-0.7c4.6-0.3,9.3-0.5,13.9-0.5c1.6,0,3.2-0.2,4.8-0.2
				c6.9-0.2,13.9-0.3,20.8-0.6c7.4-0.3,14.8-0.2,22.3-0.2c4.2,0,8.5-0.2,12.7-0.3c3.7-0.1,7.5-0.1,11.2-0.4c5.9-0.5,11.8,0,17.7-0.4
				c7.3-0.5,14.5-0.5,21.8-0.1c5.4,0.3,10.9-0.1,16.3,0.5c1.9,0.2,4,0,5.9,0.1c9.6,0.3,19.2,0.4,28.8,0.7c6.6,0.2,13.2,0.3,19.9,0.7
				c3.7,0.2,7.5,0,11.2,0.3c5.4,0.4,10.8,0.6,16.3,0.8c5.3,0.3,10.7,0.5,16,0.7c0.6,0,1.2,0,1.4,0.6c0.2,0.5-0.3,0.9-0.6,1.2
				c-1.6,1.6-3.2,3.1-4.7,4.8c-0.9,1-2.1,1.1-3.3,1c-6.4-0.2-12.8-0.4-19.2-0.5c-9.4-0.1-18.7,0.2-28.1-0.1
				c-10.1-0.3-20.1-0.2-30.2-0.6c-6.3-0.3-12.6-0.2-18.9-0.2c-10,0.1-20-0.4-29.9-0.5c-8.1-0.1-16.2-0.2-24.2-0.6
				c-9.4-0.4-18.9-0.3-28.3-0.5c-4.6-0.1-9.3-0.3-13.9-0.3c-9.4,0.2-18.8,0.5-28.2,0.8c-4.6,0.1-9.3,0-13.9,0.1
				c-10.2,0.2-20.3,0.2-30.5,0.6c-8.7,0.3-17.4,0.2-26.1,0.5c-11.4,0.4-22.9,0.7-34.3,0.8c-7.2,0.1-14.4,0-21.6,0
				c-4.7,0-9.5-0.3-14.1,0.1c-4.5,0.3-8.9-0.1-13.4-0.2c-7.1-0.2-14.2-0.2-21.3-0.4c-7.6-0.3-15.1-0.6-22.7-0.9
				c-1.2,0-2.4-0.1-3.6,0.1c-1.2,0.2-2-0.2-2.8-0.9c-3.2-3-6.1-6.3-9.1-9.5C149.1,609.8,149,609.5,148.8,609z"/>
			<path d="M165.8,626.4c0.6-0.7,1.1-0.6,1.6-0.6c4.5,0.2,8.9,0,13.4,0.3c5.3,0.4,10.6-0.1,15.8,0.2c6.9,0.4,13.7,0.3,20.6,0.7
				c5.2,0.3,10.4,0.1,15.6-0.1c5.5-0.1,11-0.2,16.5-0.2c6.9,0,13.7-0.1,20.6-0.1c4.3,0,8.6,0.1,12.9-0.1c4.6-0.2,9.2-0.3,13.9-0.4
				c10.5-0.3,20.9-0.4,31.4-0.6c8.2-0.2,16.3-0.1,24.4-0.5c6.9-0.3,13.9-0.1,20.8-0.5c11.5-0.6,23-0.5,34.5-0.3c8,0.2,16,0,23.9,0.5
				c7.6,0.4,15.2,0.1,22.8,0.5c8.4,0.4,16.8,0.4,25.2,0.5c5.9,0.1,11.8,0.4,17.7,0.3c7.4-0.2,14.8,0,22.2,0.3
				c14.7,0.5,29.4,0.1,44.1,0.4c4.6,0.1,9.3,0.3,13.9,0.4c0.5,0,1-0.1,1.3,0.4c0.4,0.7-0.3,1-0.7,1.4c-3.3,2.9-6.6,5.8-10,8.7
				c-0.9,0.8-1.9,1-3.1,1c-5.7-0.3-11.5-0.7-17.2-1c-5.1-0.2-10.2-0.4-15.3-0.6c-8.9-0.4-17.9-1-26.8-1.3
				c-7.8-0.3-15.7-0.6-23.5-0.7c-11.7-0.2-23.3-0.6-35-1c-8.1-0.3-16.3-0.5-24.4-0.9c-7-0.3-14.1-0.3-21.1-0.6
				c-6.2-0.3-12.5-0.3-18.7-0.4c-7.7-0.1-15.3-0.3-23-0.3c-4.9,0-9.9,0.4-14.8,0.2c-9.8-0.3-19.7-0.2-29.5-0.3
				c-9.2-0.1-18.4,0.2-27.6,0.5c-8.1,0.3-16.1,0.9-24.2,1.4c-8,0.4-16,0.8-23.9,1.1c-8.1,0.3-16.2,0.4-24.2,0.2
				c-6.3-0.1-12.6-0.3-18.9-0.5c-5.9-0.2-11.8-0.4-17.7-0.3c-0.8,0-1.6,0-2.4-0.1c-2.3-0.2-4.3-1-5.9-2.8
				C169.4,629.6,167.3,628.4,165.8,626.4z"/>
			<path d="M201,654.1c0.7-0.5,1.3-0.3,1.9-0.3c11.5,0.1,23-0.7,34.5-1.2c3.8-0.1,7.6,0,11.5-0.2c4.3-0.2,8.6-0.8,12.9-0.7
				c6.9,0.1,13.7-0.3,20.6-0.6c6.5-0.3,12.9-0.2,19.4-0.7c3.8-0.3,7.7,0,11.5-0.3c4.8-0.3,9.6-0.2,14.4-0.5
				c6.9-0.5,13.8-0.3,20.6-0.3c12.2,0,24.3-0.1,36.5,0.1c3.3,0,6.7-0.1,10,0.2c3.6,0.4,7.2-0.2,10.8-0.2c4.4,0.1,8.8,0.3,13.2,0.3
				c5.4,0,10.7-0.1,16.1,0.1c8,0.3,16.1,0.3,24.2,0.7c5.9,0.3,11.8,0,17.7,0.3c9,0.4,18,0.8,27.1,1c4.7,0.1,9.4,0,14.1,0.4
				c6.6,0.5,13.2,0.3,19.9,0.8c2.5,0.2,5,0.1,7.4,0.2c0.5,0,1.1-0.1,1.3,0.4c0.3,0.7-0.4,1-0.8,1.2c-2.7,1.8-5.5,3.6-8.2,5.4
				c-0.9,0.6-1.9,0.8-3,0.7c-7.7-0.6-15.5-0.3-23.2-0.7c-5.6-0.3-11.2-0.1-16.8-0.2c-21.5-0.4-43-0.3-64.5-0.6
				c-8.6-0.1-17.1,0-25.7-0.4c-7.4-0.4-14.9-0.2-22.3-0.5c-18.3-0.6-36.6-0.3-54.9-0.2c-9,0.1-18,0.6-27.1,1.2
				c-5.2,0.4-10.4,0.5-15.6,0.5c-7.6,0.1-15.2,0.1-22.8,0.2c-6.1,0.1-12.3,0.4-18.4,0.2c-8.4-0.3-16.8-0.1-25.2-0.2
				c-1.9,0-3.8-0.1-5.7,0.2c-1.2,0.2-2.4,0.1-3.5-0.6c-2.4-1.6-4.8-3.2-7.2-4.8C201.2,654.8,201,654.6,201,654.1z"/>
			<path d="M219.7,666c1.1-0.9,2.3-0.7,3.5-0.6c2.7,0.3,5.4,0.3,8.1,0c0.8-0.1,1.6,0,2.4,0.1c0.7,0,1.4,0.2,2.1,0.2
				c7.9-0.5,15.8,0.2,23.7,0c10.7-0.3,21.4-0.2,32.1-0.5c6.9-0.2,13.7-0.8,20.6-1.2c1.1-0.1,2.2-0.1,3.4-0.1c5,0.1,10-0.4,15.1-0.3
				c11.4,0.2,22.8-0.2,34.2,0c11.5,0.2,23,0,34.5,0.5c7.3,0.3,14.7,0.1,22.1,0.6c4.6,0.3,9.3,0.3,13.9,0c3.3-0.2,6.5,0,9.8,0.1
				c7.1,0.1,14.2,0,21.3,0.3c4.1,0.2,8.3,0,12.4,0.1c3.8,0.1,7.7-0.3,11.5-0.2c11.5,0.4,23,0.7,34.5,0.9c0.7,0,1.4-0.1,2,0.5
				c-0.1,0.9-0.8,1-1.3,1.3c-3,1.7-6,3.3-9,5c-1.4,0.8-2.8,1-4.4,1c-7.4,0-14.7-0.6-22.1-0.7c-8.9-0.2-17.7-0.1-26.6-0.2
				c-9.7-0.1-19.4-0.2-29-0.2c-8.4,0-16.8-0.1-25.2,0.2c-11.7,0.5-23.4,0.1-35,0.4c-11.1,0.3-22.2,0.9-33.3,1.2
				c-8.6,0.2-17.3,0.1-25.9,0.2c-14,0.3-28,0.5-42,0.4c-12.3-0.1-24.6-0.4-36.9-0.6c-1.3,0-2.6-0.2-3.7-0.8
				c-3.9-2.1-7.9-4.3-11.8-6.5C220.3,666.9,219.8,666.7,219.7,666z"/>
			<path d="M560.2,644.1c-1.6,1.6-3.2,2.7-4.9,3.9c-0.6,0.4-1.3,0.5-2.1,0.4c-3.4-0.3-6.7-0.2-10.1-0.3c-11.5-0.3-23-0.7-34.5-1
				c-8.9-0.3-17.9-0.5-26.8-1c-13.9-0.7-27.8-0.9-41.7-1.2c-8.9-0.2-17.8,0-26.6-0.2c-27.8-0.6-55.7-0.4-83.5-0.2
				c-6.7,0.1-13.4,0.1-20.1,0.7c-2.3,0.2-4.6,0.1-7,0.1c-7.8,0.2-15.5,0.2-23.3,0.6c-5,0.3-10.1,0.2-15.1,0.5
				c-9.3,0.6-18.5,0.7-27.8,1.1c-7.3,0.4-14.5,0.5-21.8,0.7c-6.6,0.2-13.3,0.5-19.9,0.4c-2,0-3.7-0.5-5.3-1.8
				c-2.2-1.8-4.5-3.5-6.8-5.3c-0.5-0.4-1.1-0.7-1.3-1.4c0.1-0.7,0.7-0.6,1.1-0.6c2,0,4-0.1,6,0.1c2.8,0.4,5.6,0.2,8.4,0.2
				c6.9,0.1,13.7,0.5,20.6,0.6c7.1,0.2,14.2,0,21.3-0.1c5.8-0.1,11.5-0.4,17.2-0.6c8.7-0.4,17.4-1.2,26.1-1.7
				c5-0.3,10.1-0.5,15.1-0.7c7.9-0.3,15.8,0,23.7-0.1c9.5-0.2,19,0.2,28.5,0.2c14.2-0.1,28.4-0.1,42.7,0.1
				c6.2,0.1,12.4,0.3,18.7,0.5c9.3,0.4,18.7,0.5,28,0.9c5.9,0.3,11.8,0.2,17.7,0.7c3.8,0.4,7.7,0.1,11.5,0.3
				c8.1,0.4,16.1-0.1,24.2,0.6c2.1,0.2,4.1,0,6.2,0.1c7.5,0.3,15,0.7,22.5,1c8.6,0.4,17.2,0.6,25.8,1.1c3.3,0.2,6.5,0.3,9.8,0.4
				C557.8,643.3,558.9,643.3,560.2,644.1z"/>
			<path d="M558.4,285.6c0-3.8,0.1-7.5,1.3-11.1c0.4-1.3,0.1-2.3-1-3.2c-2.3-1.7-4-4.2-6.3-5.9c-1-0.7-1.6-1.8-2.2-2.8
				c-4.2-7.2-6.7-15-7.8-23.2c-0.2-1.8,0.6-2.4,2.2-1.7c0.6,0.3,1.3,0.7,1.8,1.2c5.1,4.3,10.9,7.6,16.9,10.3
				c0.4,0.2,0.7,0.3,1.1,0.4c2.7,0.4,5.4,0.7,8.1,1.1c1.3,0.2,2.5-0.1,3.7-0.8c1.1-0.7,2.4-1.3,3.5-2c5.9-3.8,12.6-5.8,19.2-8.1
				c7.6-2.6,15.5-3.9,23.4-4.9c2.8-0.3,5.8-0.1,8.6,0c3.6,0.1,7.2,0.2,10.7,0.7c5.5,0.8,10.8,2.1,15.6,5c4,2.4,8.2,4.3,11.8,7.3
				c3.7,3.2,6.5,7,8.8,11.2c2.8,5.2,4.1,10.9,4.9,16.7c0.6,4,0.5,8.2-0.2,12.2c-0.8,4.4-2.6,8.5-5.9,11.8c-3,3.1-6.6,5.3-10.3,7.2
				c-4,2.1-8.3,3.8-12.4,5.7c-5.3,2.4-10.9,3.6-16.4,5.2c-3.8,1.1-7.7,2.1-11.6,3c-6.3,1.4-12.7,2.4-19.2,1.6
				c-8.3-1-16.4-2.4-24.3-5.2c-4.6-1.6-8.6-4.1-12.7-6.7c-1.5-1-3.1-2-4.5-3.2c-4.1-3.7-5.8-8.5-6.5-13.8
				C558.5,290.8,558.5,288.2,558.4,285.6z M550.2,247.5c-0.4,0.8-0.1,1.4,0,1.9c1.9,7.4,5.9,13.4,11.9,18.1c1.3,1,2.7,2,4.1,3
				c0.6,0.5,1.5,1.1,0.8,2c-1.6,1.9-1.7,4.3-2.1,6.5c-0.9,4.5-0.4,9.1,0.2,13.6c0.3,2.8,1.1,5.4,3.2,7.5c2.8,2.8,5.3,5.7,8.5,8
				c4.4,3.1,9.4,4.2,14.4,5.8c3.1,1,6.3,1.1,9.4,1.7c4.1,0.8,8.2,1.2,12.4,1.1c3.5-0.1,7-0.6,10.4-1.3c6.7-1.5,13.4-3,20-5
				c8.7-2.6,17.1-6.2,24.8-11.2c5-3.2,7-8.1,8-13.6c0.3-1.4,0.2-2.9,0.3-4.3c0.2-2.2,0.3-4.5-0.2-6.7c-1.2-5-2.3-10-4.9-14.5
				c-1.6-2.7-3.5-5.1-5.8-7.3c-2.9-2.7-6.5-4.3-9.9-6.2c-5.9-3.5-12.2-5.2-18.9-5.2c-0.6,0-1.3-0.1-1.9-0.1
				c-5.7-0.6-11.3-0.4-17,0.5c-7.6,1.2-15.1,2.9-22.2,5.7c-4.2,1.7-8.6,2.9-12.5,5.4c-3.6,2.3-7.5,4-12,2.4c-0.1-0.1-0.3,0-0.5,0
				c-3.3-0.2-6.4-1-9.4-2.5C557.6,251.1,553.9,249.4,550.2,247.5z"/>
			<path d="M503.7,678.3c-1.1,1.5-2.3,1.7-3.4,2.2c-2.9,1.5-5.9,2.3-9.2,2.2c-4.6-0.2-9.3-0.1-13.9,0c-8.4,0.2-16.8,0.7-25.2,0.8
				c-10.2,0.2-20.5-0.1-30.7,0.2c-21.8,0.6-43.7,0.1-65.5,0.5c-11.6,0.2-23.2,0.5-34.8,1c-4.4,0.2-8.8,0.2-13.2,0.4
				c-11.5,0.4-23,1-34.5,1c-3.6,0-7.2,0-10.8,0c-1.1,0-2.2-0.1-3.3-0.5c-4-1.7-8.1-3.5-12.1-5.2c-0.4-0.2-0.7-0.3-0.9-0.9
				c0.8-0.5,1.6-0.3,2.5-0.3c11.4,0.1,22.9,0.6,34.3,0.4c6.4-0.1,12.8,0.2,19.2-0.1c11.2-0.5,22.4-0.2,33.6-0.4
				c9.8-0.2,19.6-0.5,29.4-1c6.4-0.4,12.8-0.4,19.2-0.5c3.9-0.1,7.8,0.3,11.7,0.1c8.3-0.5,16.6,0,24.9-0.5
				c6.4-0.4,12.8-0.5,19.2-0.2c10.6,0.5,21.3,0.2,31.9,0.4c6.4,0.1,12.8,0,19.2,0C495.3,677.8,499.2,678.1,503.7,678.3z"/>
			<path d="M273.8,691.5c0.8-1,1.4-0.8,1.9-0.8c3.4-0.1,6.9-0.2,10.3-0.2c3.3-0.1,6.5-0.3,9.8-0.2c6.5,0.1,12.9-0.6,19.4-0.6
				c4.1,0,8.3-0.4,12.4-0.4c3.6,0.1,7.1,0.1,10.7-0.2c2.3-0.2,4.7-0.2,7.1,0.1c3.1,0.4,6.2-0.5,9.3-0.5c0.4,0,0.8-0.2,1.2-0.2
				c3.8,0.8,7.6-0.5,11.4-0.1c5.7,0.5,11.5-0.2,17.2-0.1c1.6,0,3.2,0.1,4.8,0.3c1.7,0.3,3.4,0.3,5-0.1c0.7-0.2,1.4-0.2,2.1,0
				c1.1,0.3,2.2,0.3,3.3,0.1c5-0.6,10-0.5,15.1-0.4c2.6,0.1,5.3-0.1,7.9-0.2c4.5-0.2,9-0.4,13.6,0.1c2.8,0.3,5.6,0.1,8.4,0.1
				c6.1,0,12.3-0.2,18.4-0.6c5.4-0.4,10.8-0.5,16.2-0.4c0.9,0,1.9-0.1,2.8,0.3c-0.1,0.2-0.1,0.5-0.2,0.5c-3.5,1.5-6.8,3.1-10.7,3.3
				c-5.6,0.4-11.2,0.3-16.8,0.6c-5,0.3-9.9,0-14.8-0.1c-7-0.1-13.9,0.3-20.8,1c-5.9,0.6-11.8,0.9-17.7,0.9c-4.9,0-9.7,0.2-14.6,0.2
				c-3.7,0-7.3,0.4-11,0.5c-11.6,0.2-23.2,0.6-34.8,0.1c-2.2-0.1-4.5,0-6.7,0c-3.8,0-7.7-0.2-11.5-0.3c-8-0.2-16-0.1-24,0.2
				c-5,0.2-10.1,0.4-15.1-0.2C280.2,693.9,277.2,692.5,273.8,691.5z"/>
			<path d="M571.3,176.1c1.8-0.1,3.4,0.1,5-0.2c1.2-0.3,1.9,0.5,2.7,1.2c5.3,4.9,10.5,9.8,15.4,15.1c8.5,9,16.5,18.3,23.8,28.2
				c2.1,2.9,2.1,3-1.5,3.6c-1.1,0.2-2.3,0.1-3.3,0.5c-1.7,0.6-2.6-0.1-3.6-1.4c-2.8-3.6-5.6-7.2-8.5-10.7
				c-10.2-12.3-21.3-23.6-33.4-34c-0.6-0.5-1.7-0.9-1.4-1.8c0.3-0.9,1.4-0.5,2.1-0.5C569.5,176,570.5,176.1,571.3,176.1z"/>
			<path d="M466.9,112.6c1-0.4,1.8,0.1,2.5,0.3c21.6,7.2,42.2,16.6,61.7,28.4c2.2,1.4,2.3,1.8,0.2,3.3c-1.3,1-2.7,1.7-3.7,3
				c-0.9,1-1.8,0.3-2.6-0.2c-3.4-1.9-6.8-3.9-10.2-5.8c-11.1-6.1-22.5-11.3-34.3-15.9c-1.6-0.6-3-1.5-4.2-2.7c-3-3.2-6-6.4-9-9.6
				C467.1,113.2,467,113,466.9,112.6z"/>
			<path d="M675.6,359.2c0.1,0.6-0.4,1.2-1,1.6c-1.9,1.2-4,2-5.6,3.6c-0.6,0.6-1-0.1-1.1-0.7c-0.3-1.6-0.5-3.1-0.8-4.7
				c-1.7-11.7-4.1-23.3-7.2-34.7c-0.9-3.2-0.8-3.2,2.3-4.6c0.9-0.4,1.9-0.9,2.8-1.3c1.5-0.7,1.7-0.6,2.2,1c0.3,0.9,0.5,1.8,0.8,2.8
				c3,11.2,5.4,22.5,7.2,33.9C675.3,357.1,675.4,358,675.6,359.2z"/>
			<path d="M237.7,357.3c0.4,3.8-1,6-3.9,6.6c-1.5,0.3-2.8-0.2-4.1-0.9c-4-1.9-5.4-4.8-4.5-9.2c0.4-1.7,1.3-2.8,2.9-3.1
				c1.6-0.4,3.3-0.6,4.9-0.8c1.1-0.1,2.3,0.4,2.6,1.4C236.2,353.4,238.3,355,237.7,357.3z"/>
			<path d="M515.9,170.8c0.1,1.5-0.3,2.9-1.2,4.1c-0.9,1.3-2.1,1.1-2.7-0.4c-0.2-0.4-0.2-0.9-0.3-1.4c-0.6-2.6-1.7-4.8-3.9-6.4
				c-0.4-0.3-0.9-0.7-1.2-1.1c-0.6-0.8-0.5-1.5,0.3-2c1.1-0.7,2.1-1.4,3.2-2c0.9-0.5,1.9-0.2,2.8,1.1
				C514.8,165.1,515.9,167.8,515.9,170.8z"/>
			<path d="M278.9,495.9c-5.1-0.9-10.1-0.2-14.9,0.3c-0.5-0.8,0-1.1,0.3-1.4c2-2.2,4.2-4.1,6.5-6c0.6-0.5,1.2-0.7,1.9,0
				C274.8,490.9,276.6,493.5,278.9,495.9z"/>
			<path d="M575.7,267.2c7.5,0,11.7,4.7,10.9,12.2c-0.1,1-0.1,2.1-0.2,3.1c-0.7,5.1-3.2,8.9-8.1,11c-0.7,0.3-1.5,0.5-2.3,0.5
				c-1.8,0-2.7-0.8-2.9-2.5c-0.1-0.8-0.1-1.6-0.1-2.4c-0.2-6.7-0.3-13.4-0.9-20.1c-0.1-1,0.3-1.5,1.2-1.7
				C574.1,267.2,574.9,267.3,575.7,267.2z M582.5,278.1c0-0.6,0-1.1,0-1.7c-0.1-1.8-0.8-3.4-1.9-4.8c-0.8-1.1-2.8-1.6-3.9-1
				c-1.1,0.6-0.6,1.7-0.6,2.6c-0.1,3.3,0.7,6.5,0.5,9.8c-0.1,1.8,0.2,3.7,0.3,5.5c0,0.5,0,1,0.6,1.2c0.5,0.1,0.9-0.3,1.2-0.7
				c0.2-0.2,0.4-0.5,0.6-0.8C581.6,285.2,582.5,281.7,582.5,278.1z"/>
			<path d="M606.8,287.9c0.6-2.4,1.1-4.9,1.4-7.4c0.4-3.3,0.9-6.6,1.3-10c0.1-0.6,0.3-1.3,0.5-1.8c0.4-1,1.2-1.2,2.2-1.1
				c1,0.2,1.5,0.8,1.5,1.8c0,0.5-0.1,1-0.2,1.4c-0.6,3.6-0.8,7.3-1.4,10.9c-0.8,4.5-1.6,9.1-2.9,13.6c-0.4,1.2-1.1,1.6-2.4,1.2
				c-1.3-0.4-1.9-1.4-2.3-2.5c-1.5-3.9-3.1-7.7-4.6-11.6c-1.2-2.9-2.7-5.6-4.1-8.4c-0.3-0.6-0.5-1.2-0.8-1.8
				c-0.2-0.6-0.5-1.2,0.1-1.8c0.6-0.5,1.4-0.5,2-0.2c1.1,0.4,1.5,1.4,2,2.3c2.6,4.6,4.7,9.4,6.7,14.3
				C606.1,287.3,606.1,287.8,606.8,287.9z"/>
			<path d="M615.7,272.8c0-0.9-0.1-1.8,0-2.6c0.1-1.3,0.6-1.8,1.8-1.6c2,0.3,4-0.3,5.9-0.5c1.1-0.1,2.1-0.1,3.1,0.3
				c0.7,0.2,1.1,0.7,1.1,1.4c0,0.8-0.6,1-1.3,1.1c-1.7,0.3-3.3,0.5-5,0.8c-1.6,0.3-1.7,0.4-1.6,2c0.1,1.4,0.3,2.7,0.3,4.1
				c0.1,1.1,0.6,1.3,1.6,1c1-0.3,2-0.7,3-0.5c0.8,0.1,1.4,0.5,1.5,1.3c0.1,0.7-0.4,1.2-1,1.5c-1.1,0.6-2.3,1.1-3.6,1.2
				c-0.9,0.1-1.5,0.5-1.4,1.5c0.1,2.4,0.2,4.8,0.4,7.2c0.1,0.9,0.7,0.9,1.4,0.8c1.4-0.1,2.9-0.2,4.3-0.2c0.6,0,1.1,0,1.7,0.2
				c0.6,0.2,1.1,0.6,1.1,1.4c0,0.7-0.5,1-1.1,1.1c-0.2,0.1-0.3,0.1-0.5,0.1c-2.8,0.3-5.5,0.7-8.3,0.8c-1.6,0.1-2.4-0.9-2.6-2.8
				c-0.4-4.1-0.7-8.3-0.6-12.4C616.1,277.7,615.7,275.3,615.7,272.8z"/>
			<path d="M643.7,288.1c0.1,2.6-0.7,4.5-2.9,5.5c-2.6,1.2-5,0.8-7.2-0.9c-1.6-1.2-2.4-2.9-2.8-4.9c-0.2-0.9-0.1-1.8,1-2.1
				c1.1-0.3,1.9,0.2,2.3,1.2c0.3,0.7,0.4,1.4,0.6,2.1c0.6,1.7,1.8,2.5,3,2.2c1.5-0.4,2.3-1.8,2.2-3.5c-0.2-2.4-1.5-4.2-3-5.9
				c-1.2-1.3-2.5-2.5-3.7-3.8c-1.2-1.4-2.4-2.8-2.6-4.7c-0.2-2.1,0.5-3.8,2.4-4.8c2.7-1.6,6.2-1.3,8.5,0.7c0.4,0.4,0.8,0.8,1.1,1.3
				c0.3,0.5,0.4,1.1-0.1,1.5c-0.5,0.5-1,0.4-1.5,0.1c-0.6-0.4-1.2-0.9-1.7-1.2c-1.4-0.9-2.6-0.9-3.8,0c-1,0.8-1.3,2.2-0.7,3.7
				c0.5,1.2,1.4,2.1,2.3,3c1.7,1.6,3.3,3.3,4.7,5.1C643.1,284.2,643.8,286.1,643.7,288.1z"/>
			<path d="M649.2,271.3c-1,0-1.9,0.1-2.8-0.4c-0.6-0.3-1.1-0.7-1-1.5c0.1-0.8,0.7-1,1.4-1.1c2.4-0.4,4.7-0.7,7.1-1
				c1.6-0.2,3.2-0.1,4.8-0.4c1-0.2,1.9,0,2.8,0.5c0.6,0.3,1,0.8,0.8,1.6c-0.2,0.6-0.6,0.9-1.2,1c-1.4,0.1-2.9,0.3-4.3,0.4
				c-1.1,0.1-1.6,0.6-1.4,1.7c0.8,4.2,0,8.5,0.8,12.7c0.6,2.9,0.3,5.9,1.1,8.8c0.2,0.7,0.3,1.5-0.5,1.9c-0.8,0.5-1.5,0.1-2.2-0.3
				c-1-0.7-1.3-1.8-1.4-2.9c-0.5-5.1-1.4-10.1-1.4-15.3c0-1.1,0-2.2,0-3.4C651.6,271.7,651.6,270.8,649.2,271.3z"/>
			<path d="M588.8,279.4c0-2.6,0-5.3,0-7.9c0-1.8,0.4-2.5,1.4-2.6c1.1-0.1,2.2,0.7,2.6,2c0.2,0.9,0.3,1.9,0.3,2.8
				c0.1,6.7,0.2,13.4,0.9,20.1c0.2,2-0.3,2.8-1.6,2.9c-1.5,0.1-2.5-0.9-2.6-2.8C589.5,289.1,589,284.3,588.8,279.4z"/>
			<path d="M672.5,268.9c-0.2,1.4-0.3,2.9-0.5,4.4c-0.6,3.9-1.2,7.9-1.8,11.8c-0.3,1.6-0.9,2.1-1.9,2c-1.2-0.1-2-1.2-1.8-2.6
				c0.3-2.9,0.8-5.8,1.2-8.8c0.4-2.4,0.8-4.9,1.3-7.3c0.3-1.8,0.8-2.4,1.8-2.3C671.9,266.1,672.5,267,672.5,268.9z"/>
			<path d="M666.2,294.9c-1.3,0-2.4-1.1-2.4-2.2c0.1-1.4,1.2-2.6,2.3-2.6c1.5,0,3.2,1.3,3.2,2.4
				C669.2,293.7,667.6,294.9,666.2,294.9z"/>
		</g>
	</g>
</g>
</svg>
